<svg width="745" height="544" viewBox="0 0 745 544" fill="none" xmlns="http://www.w3.org/2000/svg">
<g id="Illustration">
<g id="Shape">
<g id="Group 59">
<path id="Path" opacity="0.0845424" d="M673.321 164.249C682.699 151.731 700.454 149.18 712.98 158.552C725.38 167.83 728.006 185.315 718.958 197.81L718.68 198.187L644.38 297.374C634.917 310.007 617.341 313.21 604.041 304.802L603.64 304.544L556.866 273.948L509.706 342.593C500.938 355.356 483.565 358.694 470.703 350.171L470.314 349.909C457.544 341.146 454.205 323.783 462.733 310.928L462.995 310.54L524.794 220.586C534 207.185 552.142 203.492 565.842 212.144L566.256 212.41L613.899 243.575L673.321 164.249Z" fill="#7367F0"/>
<path id="Path_2" opacity="0.0845424" d="M430.118 3.29424C432.496 -0.160162 437.232 -1.03872 440.696 1.33194C444.115 3.67139 445.018 8.30087 442.756 11.7421L442.664 11.8791L424.148 38.779C421.433 42.5698 416.181 43.4829 412.345 40.8606L412.208 40.7654L401.574 33.1946L390.048 51.4538C387.839 54.9536 383.234 56.0368 379.696 53.9185L379.557 53.8332C376.047 51.6305 374.96 47.0392 377.085 43.5109L377.17 43.3722L392.455 19.158C394.973 15.169 400.257 13.9705 404.258 16.4812L404.467 16.6168L404.673 16.7584L415.53 24.4883L430.118 3.29424Z" fill="#7367F0"/>
<path id="+" opacity="0.070266" fill-rule="evenodd" clip-rule="evenodd" d="M632.404 129.308C633.784 129.308 634.904 128.189 634.904 126.808V108.831H652.893C654.273 108.831 655.393 107.712 655.393 106.331V97.6761C655.393 96.2954 654.273 95.1761 652.893 95.1761H634.904V77.0664C634.904 75.6857 633.784 74.5664 632.404 74.5664H623.608C622.227 74.5664 621.108 75.6857 621.108 77.0664V95.1761H603.119C601.738 95.1761 600.619 96.2954 600.619 97.6761V106.331C600.619 107.712 601.738 108.831 603.119 108.831H621.108V126.808C621.108 128.189 622.227 129.308 623.608 129.308H632.404Z" fill="#00CFE8"/>
<path id="Oval" opacity="0.0739397" fill-rule="evenodd" clip-rule="evenodd" d="M91.603 20C142.194 20 183.207 60.9886 183.207 111.551C183.207 162.113 142.194 203.101 91.603 203.101C41.0115 203.101 -0.000976562 162.113 -0.000976562 111.551C-0.000976562 60.9886 41.0115 20 91.603 20ZM91.603 65.3034C66.0465 65.3034 45.3288 86.0089 45.3288 111.551C45.3288 137.092 66.0465 157.798 91.603 157.798C117.16 157.798 137.877 137.092 137.877 111.551C137.877 86.0089 117.16 65.3034 91.603 65.3034Z" fill="#00CFE8"/>
</g>
</g>
<g id="Meeting">
<g id="Group 63">
<path id="Rectangle" fill-rule="evenodd" clip-rule="evenodd" d="M60.5967 101C60.5967 92.1634 67.7601 85 76.5967 85H546.725C555.562 85 562.725 92.1634 562.725 101V305.224C562.725 314.061 555.562 321.224 546.725 321.224H76.5967C67.7601 321.224 60.5967 314.061 60.5967 305.224V101Z" fill="#E7FCFF"/>
<path id="Rectangle_2" opacity="0.383371" fill-rule="evenodd" clip-rule="evenodd" d="M68.1475 101C68.1475 92.1634 75.3109 85 84.1475 85H546.725C555.562 85 562.725 92.1634 562.725 101V305.224C562.725 314.061 555.562 321.224 546.725 321.224H84.1475C75.3109 321.224 68.1475 314.061 68.1475 305.224V101Z" fill="#00CFE8"/>
<path id="Rectangle_3" fill-rule="evenodd" clip-rule="evenodd" d="M75.6982 102.559C75.6982 97.0362 80.1754 92.5591 85.6982 92.5591H545.174C550.697 92.5591 555.174 97.0362 555.174 102.559V303.665C555.174 309.188 550.697 313.665 545.174 313.665H85.6983C80.1754 313.665 75.6982 309.188 75.6982 303.665L75.6982 102.559Z" fill="#E7FCFF"/>
<path id="Rectangle_4" fill-rule="evenodd" clip-rule="evenodd" d="M274.851 299.822C274.851 296.509 277.537 293.822 280.851 293.822H350.022C353.335 293.822 356.022 296.509 356.022 299.822V313.665H274.851V299.822Z" fill="#D4EFFF"/>
<path id="Rectangle_5" d="M282.401 299.822C282.401 296.509 285.088 293.822 288.401 293.822H357.572C360.886 293.822 363.572 296.509 363.572 299.822V321.224H282.401V299.822Z" fill="#91D6FF"/>
</g>
<g id="ElementCard20">
<g id="Rectangle_6" filter="url(#filter0_dd_674_15288)">
<path fill-rule="evenodd" clip-rule="evenodd" d="M89.8564 107.397C89.8564 104.421 92.2691 102.008 95.2452 102.008H220.269C223.245 102.008 225.658 104.421 225.658 107.397V148.047C225.658 151.023 223.245 153.436 220.269 153.436H95.2452C92.2691 153.436 89.8564 151.023 89.8564 148.047V107.397Z" fill="white"/>
</g>
<path id="Rectangle_7" opacity="0.454078" fill-rule="evenodd" clip-rule="evenodd" d="M130.037 132.559C130.037 131.716 130.721 131.032 131.565 131.032H156.992C157.836 131.032 158.52 131.716 158.52 132.559C158.52 133.403 157.836 134.087 156.992 134.087H131.565C130.721 134.087 130.037 133.403 130.037 132.559Z" fill="#C7C1FF"/>
<path id="Rectangle_8" fill-rule="evenodd" clip-rule="evenodd" d="M130.037 123.903C130.037 123.059 130.721 122.375 131.565 122.375H146.82C147.663 122.375 148.347 123.059 148.347 123.903C148.347 124.747 147.663 125.431 146.82 125.431H131.565C130.721 125.431 130.037 124.747 130.037 123.903Z" fill="#2DC52A"/>
<g id="Group 9">
<path id="Path_3" fill-rule="evenodd" clip-rule="evenodd" d="M204.814 120.284C206.984 117.429 211.054 116.876 213.905 119.048C214.561 119.548 215.116 120.168 215.54 120.876C215.758 121.241 215.64 121.714 215.276 121.932C214.912 122.151 214.44 122.033 214.221 121.668C213.898 121.128 213.474 120.655 212.974 120.274C210.843 118.65 207.82 119.022 206.141 121.085L206.038 121.216L203.653 124.353C199.928 129.253 193.625 131.414 187.694 129.848L187.44 129.779L185.522 129.237C185.398 129.202 185.274 129.17 185.148 129.143C181.64 128.369 178.169 130.541 177.31 134.01L177.27 134.182L176.874 135.98C176.734 136.616 176.463 137.216 176.077 137.741C174.552 139.817 171.634 140.262 169.56 138.735C169.218 138.483 169.145 138.001 169.397 137.658C169.648 137.316 170.13 137.243 170.472 137.494C171.861 138.518 173.816 138.22 174.838 136.829C175.064 136.521 175.232 136.175 175.333 135.807L175.372 135.649L175.768 133.851C176.736 129.451 181.084 126.67 185.479 127.639L185.71 127.694L185.939 127.755L187.858 128.297C193.173 129.798 198.858 127.945 202.273 123.622L202.429 123.421L204.814 120.284Z" fill="#2DC52A"/>
<path id="Path_4" fill-rule="evenodd" clip-rule="evenodd" d="M197.883 119.353C199.453 115.857 203.558 114.296 207.05 115.869C207.752 116.184 208.396 116.615 208.957 117.142C210.276 118.384 211.497 120.347 212.643 123.035C212.809 123.426 212.628 123.878 212.237 124.045C211.846 124.212 211.395 124.03 211.228 123.639C210.159 121.13 209.044 119.338 207.903 118.264C207.467 117.854 206.966 117.519 206.42 117.273C203.751 116.072 200.624 117.22 199.354 119.838L199.286 119.984L198.791 121.086C198.676 121.343 198.543 121.591 198.395 121.83C196.567 124.766 192.708 125.663 189.775 123.834C189.426 123.616 189.043 123.458 188.642 123.366C186.69 122.919 184.746 124.102 184.231 126.022L184.198 126.157L183.342 129.899C183.084 131.026 182.536 132.067 181.754 132.917C179.313 135.571 175.215 135.785 172.514 133.434L172.37 133.305L168.884 130.092C168.571 129.804 168.551 129.317 168.839 129.004C169.108 128.712 169.549 128.675 169.861 128.905L169.926 128.959L173.412 132.173C175.485 134.083 178.714 133.95 180.622 131.874C181.177 131.271 181.578 130.543 181.793 129.754L181.842 129.555L182.698 125.813C183.345 122.985 186.16 121.217 188.985 121.865C189.482 121.979 189.959 122.165 190.401 122.416L190.589 122.527C192.801 123.907 195.711 123.23 197.089 121.016C197.164 120.896 197.233 120.772 197.297 120.646L197.388 120.455L197.883 119.353Z" fill="#C7C1FF"/>
</g>
<ellipse id="Oval_2" cx="112.49" cy="128.231" rx="10.4267" ry="10.4383" fill="#2DC52A"/>
</g>
<g id="ElementCard3">
<g id="Rectangle_9" filter="url(#filter1_dd_674_15288)">
<path fill-rule="evenodd" clip-rule="evenodd" d="M89.8564 165.592C89.8564 162.83 92.095 160.592 94.8564 160.592H253.806C256.567 160.592 258.806 162.83 258.806 165.592V298.271C258.806 301.033 256.567 303.271 253.806 303.271H94.8564C92.095 303.271 89.8564 301.033 89.8564 298.271V165.592Z" fill="white"/>
</g>
<mask id="mask0_674_15288" style="mask-type:alpha" maskUnits="userSpaceOnUse" x="89" y="160" width="170" height="144">
<path id="Rectangle_10" fill-rule="evenodd" clip-rule="evenodd" d="M89.8564 165.592C89.8564 162.83 92.095 160.592 94.8564 160.592H253.806C256.567 160.592 258.806 162.83 258.806 165.592V298.271C258.806 301.033 256.567 303.271 253.806 303.271H94.8564C92.095 303.271 89.8564 301.033 89.8564 298.271V165.592Z" fill="white"/>
</mask>
<g mask="url(#mask0_674_15288)">
<g id="Path 3" filter="url(#filter2_d_674_15288)">
<path d="M112.509 270.2C112.509 270.2 132.594 264.425 141.45 252.639C150.306 240.853 153.292 229.428 168.523 229.428C183.755 229.428 185.707 246.925 202.173 246.925C218.639 246.925 219.539 224.612 225.012 215.752C230.484 206.892 239.929 206.892 239.929 206.892" stroke="#8EEAF6" stroke-width="4.004" stroke-linecap="round"/>
</g>
<path id="Path 3_2" opacity="0.414737" fill-rule="evenodd" clip-rule="evenodd" d="M112.509 268.982C112.509 268.982 132.594 263.232 141.45 251.497C150.306 239.761 153.292 228.386 168.523 228.386C183.755 228.386 185.707 245.808 202.173 245.808C218.639 245.808 219.539 223.59 225.012 214.769C230.484 205.947 239.929 205.947 239.929 205.947V280.348C239.929 282.049 238.55 283.428 236.849 283.428H115.589C113.888 283.428 112.509 282.049 112.509 280.348V268.982Z" fill="#CEF9FF"/>
<rect id="Rectangle_11" x="103.07" y="174.765" width="52.8556" height="5.66939" rx="2.83469" fill="#8EEAF6"/>
<path id="Rectangle_12" fill-rule="evenodd" clip-rule="evenodd" d="M103.07 191.774C103.07 190.208 104.339 188.939 105.905 188.939H124.776C126.341 188.939 127.61 190.208 127.61 191.774C127.61 193.339 126.341 194.608 124.776 194.608H105.905C104.339 194.608 103.07 193.339 103.07 191.774Z" fill="#8EEAF6" fill-opacity="0.401934"/>
<ellipse id="Oval_3" cx="226.243" cy="178.072" rx="3.30348" ry="3.30714" fill="#8EEAF6" fill-opacity="0.451705"/>
<ellipse id="Oval_4" cx="235.681" cy="178.072" rx="3.30348" ry="3.30714" fill="#8EEAF6" fill-opacity="0.451705"/>
<ellipse id="Oval_5" cx="245.12" cy="178.072" rx="3.30348" ry="3.30714" fill="#8EEAF6" fill-opacity="0.451705"/>
</g>
</g>
<g id="ElementCard11">
<g id="Rectangle_13" filter="url(#filter3_d_674_15288)">
<path fill-rule="evenodd" clip-rule="evenodd" d="M285.233 122.721C285.233 118.588 288.584 115.237 292.718 115.237H517.93C522.064 115.237 525.415 118.588 525.415 122.721V273.237C525.415 277.371 522.064 280.721 517.93 280.721H292.718C288.584 280.721 285.233 277.371 285.233 273.237V122.721Z" fill="white"/>
</g>
<g id="Group 26">
<path id="Path_5" fill-rule="evenodd" clip-rule="evenodd" d="M325.853 200.101V259.287H317.022V200.101H325.853Z" fill="#E7E4FF"/>
<path id="Path_6" fill-rule="evenodd" clip-rule="evenodd" d="M325.853 214.245V259.287H317.022V214.245H325.853Z" fill="#C7C1FF"/>
<path id="Path_7" fill-rule="evenodd" clip-rule="evenodd" d="M325.853 242.533V259.287H317.022V242.533H325.853Z" fill="#2DC52A"/>
</g>
<g id="Group 26_2">
<path id="Path_8" fill-rule="evenodd" clip-rule="evenodd" d="M347.045 185.957V259.287H338.215V185.957H347.045Z" fill="#E7E4FF"/>
<path id="Path_9" fill-rule="evenodd" clip-rule="evenodd" d="M347.045 207.172V259.287H338.215V207.172H347.045Z" fill="#C7C1FF"/>
<path id="Path_10" fill-rule="evenodd" clip-rule="evenodd" d="M347.045 242.533V259.287H338.215V242.533H347.045Z" fill="#2DC52A"/>
</g>
<g id="Group 26_3">
<path id="Path_11" fill-rule="evenodd" clip-rule="evenodd" d="M368.237 196.565V259.287H359.407V196.565H368.237Z" fill="#E7E4FF"/>
<path id="Path_12" fill-rule="evenodd" clip-rule="evenodd" d="M368.237 217.781V259.287H359.407V217.781H368.237Z" fill="#C7C1FF"/>
<path id="Path_13" fill-rule="evenodd" clip-rule="evenodd" d="M368.237 246.069V259.287H359.407V246.069H368.237Z" fill="#2DC52A"/>
</g>
<g id="Group 26_4">
<path id="Path_14" fill-rule="evenodd" clip-rule="evenodd" d="M389.43 178.885V259.287H380.6V178.885H389.43Z" fill="#E7E4FF"/>
<path id="Path_15" fill-rule="evenodd" clip-rule="evenodd" d="M389.43 200.101V259.287H380.6V200.101H389.43Z" fill="#C7C1FF"/>
<path id="Path_16" fill-rule="evenodd" clip-rule="evenodd" d="M389.43 228.389V259.287H380.6V228.389H389.43Z" fill="#2DC52A"/>
</g>
<g id="Group 26_5">
<path id="Path_17" fill-rule="evenodd" clip-rule="evenodd" d="M410.622 164.741V259.287H401.792V164.741H410.622Z" fill="#E7E4FF"/>
<path id="Path_18" fill-rule="evenodd" clip-rule="evenodd" d="M410.622 193.029V259.287H401.792V193.029H410.622Z" fill="#C7C1FF"/>
<path id="Path_19" fill-rule="evenodd" clip-rule="evenodd" d="M410.622 235.46V259.287H401.792V235.46H410.622Z" fill="#2DC52A"/>
</g>
<g id="Group 26_6">
<path id="Path_20" fill-rule="evenodd" clip-rule="evenodd" d="M431.815 185.957V259.287H422.984V185.957H431.815Z" fill="#E7E4FF"/>
<path id="Path_21" fill-rule="evenodd" clip-rule="evenodd" d="M431.815 207.172V259.287H422.984V207.172H431.815Z" fill="#C7C1FF"/>
<path id="Path_22" fill-rule="evenodd" clip-rule="evenodd" d="M431.815 239.704V259.287H422.984V239.704H431.815Z" fill="#2DC52A"/>
</g>
<g id="Group 26_7">
<path id="Path_23" fill-rule="evenodd" clip-rule="evenodd" d="M453.007 193.029V259.287H444.177V193.029H453.007Z" fill="#E7E4FF"/>
<path id="Path_24" fill-rule="evenodd" clip-rule="evenodd" d="M453.007 207.173V259.287H444.177V207.173H453.007Z" fill="#C7C1FF"/>
<path id="Path_25" fill-rule="evenodd" clip-rule="evenodd" d="M453.007 234.753V259.287H444.177V234.753H453.007Z" fill="#2DC52A"/>
</g>
<g id="Group 26_8">
<path id="Path_26" fill-rule="evenodd" clip-rule="evenodd" d="M474.199 178.885V259.287H465.369V178.885H474.199Z" fill="#E7E4FF"/>
<path id="Path_27" fill-rule="evenodd" clip-rule="evenodd" d="M474.199 207.173V259.287H465.369V207.173H474.199Z" fill="#C7C1FF"/>
<path id="Path_28" fill-rule="evenodd" clip-rule="evenodd" d="M474.199 241.826V259.287H465.369V241.826H474.199Z" fill="#2DC52A"/>
</g>
<g id="Group 26_9">
<path id="Path_29" fill-rule="evenodd" clip-rule="evenodd" d="M495.392 193.029V259.287H486.562V193.029H495.392Z" fill="#E7E4FF"/>
<path id="Path_30" fill-rule="evenodd" clip-rule="evenodd" d="M495.392 207.173V259.287H486.562V207.173H495.392Z" fill="#C7C1FF"/>
<path id="Path_31" fill-rule="evenodd" clip-rule="evenodd" d="M495.392 241.826V259.287H486.562V241.826H495.392Z" fill="#2DC52A"/>
</g>
<path id="Rectangle_14" opacity="0.57573" fill-rule="evenodd" clip-rule="evenodd" d="M314.196 145.647C314.196 144.475 315.146 143.525 316.318 143.525H386.955C388.126 143.525 389.076 144.475 389.076 145.647C389.076 146.818 388.126 147.768 386.955 147.768H316.318C315.146 147.768 314.196 146.818 314.196 145.647Z" fill="#8C81FF"/>
<rect id="Rectangle_15" x="314.196" y="131.502" width="39.5593" height="4.2432" rx="2.1216" fill="#2DC52A"/>
</g>
<g id="Chair4">
<path id="Path_32" fill-rule="evenodd" clip-rule="evenodd" d="M558.04 449.882L569.483 540.29L563.484 540.21L552.041 450.728L558.04 449.882Z" fill="#BFE7FF"/>
<path id="Path_33" fill-rule="evenodd" clip-rule="evenodd" d="M480.617 464.093C475.401 464.093 471.172 459.864 471.172 454.648C471.172 449.431 475.401 445.203 480.617 445.203H518.379C524.101 445.203 528.883 440.849 529.419 435.153L535.457 370.96C535.992 365.263 540.774 360.91 546.496 360.91H570.196C576.655 360.91 581.746 366.408 581.251 372.848L575.027 453.854C574.583 459.632 569.766 464.093 563.972 464.093H480.617Z" fill="#91D6FF"/>
<path id="Combined Shape" fill-rule="evenodd" clip-rule="evenodd" d="M471.174 454.567C471.226 454.568 471.278 454.568 471.33 454.568H554.46C560.253 454.568 565.07 450.108 565.515 444.332L571.735 363.614C571.802 362.734 571.766 361.872 571.636 361.038C571.084 360.954 570.519 360.91 569.942 360.91H546.353C540.633 360.91 535.852 365.262 535.314 370.957L529.281 434.916C528.744 440.611 523.963 444.963 518.242 444.963H480.593C475.39 444.963 471.172 449.181 471.172 454.384C471.172 454.445 471.172 454.506 471.174 454.567Z" fill="#BFE7FF"/>
</g>
<g id="Wom1.4">
<g id="Head">
<path id="Path_34" fill-rule="evenodd" clip-rule="evenodd" d="M545.276 345.34C557.474 342.498 558.277 325.746 549.003 319.934C558.567 299.875 536.45 279.958 521.3 292.241C511.368 287.987 503.114 304.586 512.356 317.477C508.481 339.613 516.368 345.334 530.584 345.577L545.276 345.34Z" fill="#422851"/>
<path id="Path_35" fill-rule="evenodd" clip-rule="evenodd" d="M545.124 341.339C545.124 341.339 539.19 339.946 538.984 330.217C538.778 320.489 538.923 317.169 538.923 317.169L525.853 316.933C525.853 316.933 525.71 327.774 525.708 331.696C525.703 342.229 518.367 341.339 518.367 341.339C518.367 341.339 519.892 349.88 531.736 350.546C540.983 351.067 545.124 341.339 545.124 341.339Z" fill="url(#paint0_linear_674_15288)"/>
<path id="Path_36" fill-rule="evenodd" clip-rule="evenodd" d="M541.969 312.311C547.8 312.085 546.849 320.625 540.792 320.614C540.792 320.614 537.274 332.746 525.06 332.746C515.14 332.746 514.495 318.606 514.405 315.785C514.308 312.777 514.296 302.896 514.296 302.896L542.196 302.883L541.969 312.311Z" fill="url(#paint1_linear_674_15288)"/>
<path id="Path_37" d="M527.415 324.595C527.415 324.595 524.506 327.06 521.136 324.752" stroke="#F77B7B" stroke-width="1.5" stroke-linecap="round"/>
<path id="Path_38" d="M525.495 327.45C524.59 327.868 523.718 327.898 522.94 327.481" stroke="#F49494" stroke-linecap="round"/>
<path id="Path 8" d="M541.376 316.904C541.316 315.534 541.733 314.446 543.13 314.227" stroke="#F77B7B" stroke-linecap="round"/>
<path id="Path_39" fill-rule="evenodd" clip-rule="evenodd" d="M542.892 311.255C542.892 311.255 539.696 315.546 539.049 315.569C538.402 315.592 538.175 309.989 538.175 309.989C534.254 309.689 524.333 307.712 521.901 303.107C520.2 307.17 516.948 308.975 514.812 308.628L514.407 317.261L513.41 299.906H543.674L542.892 311.255Z" fill="#422851"/>
</g>
<g id="LLeg">
<path id="Path_40" fill-rule="evenodd" clip-rule="evenodd" d="M485.405 512.891C485.405 512.891 490.636 523.462 486.348 526.793C482.053 530.124 470.709 536.368 470.709 536.368L500.763 534.478L494.082 511.424L485.405 512.891Z" fill="url(#paint2_linear_674_15288)"/>
<path id="Path_41" fill-rule="evenodd" clip-rule="evenodd" d="M497.855 522.951C496.372 523.124 497.956 528.12 494.745 528.5C491.54 528.88 489.982 524.146 486.345 525.647C482.709 527.148 469.445 534.906 468.923 538.078C468.394 541.249 473.336 542.182 480.113 541.466C486.89 540.749 488.139 538.337 493.227 539.309C498.308 540.28 502.114 538.732 501.947 535.017C501.779 531.303 499.338 522.778 497.855 522.951Z" fill="#222D4E"/>
<path id="Path 14" fill-rule="evenodd" clip-rule="evenodd" d="M484.687 526.417L485.347 527.407C485.671 527.892 485.512 528.55 485.003 528.835L476.037 533.841C475.746 534.003 475.394 534.01 475.097 533.859L473.705 533.153C475.891 531.569 477.678 530.378 479.654 529.21C481.17 528.313 482.849 527.388 484.687 526.417Z" fill="white" fill-opacity="0.540975"/>
<path id="Path_42" fill-rule="evenodd" clip-rule="evenodd" d="M530.677 419.725C521.578 420.131 470.939 431.338 461.738 433.242C452.538 435.145 444.759 445.448 451.775 457.377C459.655 470.768 479.986 508.799 484.923 517.372C487.366 521.616 499.692 519.237 496.796 512.114C491.399 498.838 488.893 465.485 475.132 453.324C475.132 453.324 521.409 461.382 541.398 452.151C555.926 445.442 552.64 418.742 530.677 419.725Z" fill="url(#paint3_linear_674_15288)"/>
</g>
<g id="LArm">
<path id="Path_43" fill-rule="evenodd" clip-rule="evenodd" d="M466.209 365.893C466.209 365.893 466.312 358.486 463.723 354.615C461.133 350.744 461.03 346.632 459.07 346.766C457.11 346.901 459.051 356.458 459.051 356.458C459.051 356.458 456.564 355.508 454.778 354.306C452.991 353.103 447.574 347.176 446.309 348.226C444.162 350.016 447.619 360.111 449.502 362.129C451.391 364.148 461.711 370.787 461.711 370.787L466.209 365.893Z" fill="url(#paint4_linear_674_15288)"/>
<path id="Path_44" fill-rule="evenodd" clip-rule="evenodd" d="M522.123 361.454C517.89 371.276 510.141 389.319 506.946 394.703C502.942 401.444 496.629 404.414 489.237 399.412C481.469 394.156 460.082 373.657 459.455 369.014C458.833 364.37 464.068 358.799 468.805 361.683C473.541 364.568 493.223 380.956 493.223 380.956C493.223 380.956 501.166 360.583 507.556 348.782C513.089 338.571 528.565 346.522 522.123 361.454Z" fill="#6A5EE3"/>
<path id="Path_45" fill-rule="evenodd" clip-rule="evenodd" d="M493.141 380.966C493.141 380.966 491.007 388.206 490.509 387.787C490.01 387.368 490.89 379.074 490.89 379.074L493.141 380.966Z" fill="black" fill-opacity="0.302803"/>
</g>
<g id="Body">
<path id="Path_46" fill-rule="evenodd" clip-rule="evenodd" d="M564.421 349.619C564.421 349.619 554.221 383.79 553.919 390.258C553.617 396.727 562.261 415.739 560.79 420.545C557.396 431.649 514.073 436.431 512.418 421.492C511.646 414.526 513.252 408.273 511.401 400.064C509.557 391.855 502.143 379.656 506.348 368.187C510.553 356.719 509.426 346.108 512.434 344.103C515.442 342.097 522.473 339.967 522.473 339.967C525.892 345.002 537.435 344.928 542.942 339.612C542.942 339.612 556.625 342.268 564.421 349.619Z" fill="#7367F0"/>
<path id="Path_47" fill-rule="evenodd" clip-rule="evenodd" d="M555.281 355.154C548.482 365.949 548.502 384.744 544.851 387.206C541.2 389.668 526.988 387.252 526.988 389.201C526.988 391.151 546.627 409.016 543.403 417.556C541.715 422.028 542.173 426.029 544.777 429.558L545.627 429.373C553.365 427.623 559.586 424.481 560.789 420.545C562.261 415.739 552.62 396.727 552.922 390.258C553.178 384.768 561.285 359.315 563.729 351.747C561.739 348.234 558.923 349.369 555.281 355.154Z" fill="black" fill-opacity="0.199355"/>
</g>
<g id="RArm">
<path id="Path_48" fill-rule="evenodd" clip-rule="evenodd" d="M543.688 383.794C543.688 383.794 535.097 376.187 532.467 375.304C529.837 374.421 514.434 373.36 514.532 375.355C514.642 377.493 522.915 377.37 523.772 378.421C524.629 379.472 524.824 386.659 528.064 387.465C531.298 388.272 540.993 389.663 540.993 389.663L543.688 383.794Z" fill="url(#paint5_linear_674_15288)"/>
<path id="Path_49" fill-rule="evenodd" clip-rule="evenodd" d="M566.543 351.583C575.594 364.364 583.321 383.833 586.288 391.423C589.254 399.013 586.262 410.462 573.218 408.214C560.199 405.973 539.483 393.792 537.191 390.239C534.899 386.686 538.381 380.221 542.766 381.067C546.829 381.85 566.979 390.423 566.979 390.423C566.979 390.423 554.016 367.432 550.85 361.269C545.562 350.976 558.57 340.322 566.543 351.583Z" fill="#6A5EE3"/>
<path id="Path_50" fill-rule="evenodd" clip-rule="evenodd" d="M566.773 390.265C566.773 390.265 573.563 393.64 572.735 392.225C571.907 390.809 564.182 385.836 564.182 385.836L566.773 390.265Z" fill="black" fill-opacity="0.302803"/>
</g>
</g>
<g id="Men3.2">
<g id="LLeg_2">
<path id="Path_51" fill-rule="evenodd" clip-rule="evenodd" d="M234.061 509.194C234.061 509.194 233.925 517.905 239.271 521C244.617 524.094 252.9 529.844 252.9 529.844L221.392 530.912L222.29 509.116L234.061 509.194Z" fill="#F8CFCF"/>
<path id="Path_52" fill-rule="evenodd" clip-rule="evenodd" d="M220.292 518.794L219.779 532.926H227.098L227.599 531.105C227.599 531.105 230.355 530.992 231.947 531.778C233.63 532.61 233.856 533.014 233.856 533.014L257.07 533.063C257.07 533.063 258.215 528.495 251.139 525.191C244.063 521.887 238.91 517.197 237.932 516.717C236.946 516.233 234.957 515.96 233.556 517.096C232.156 518.232 231.048 521.218 227.874 521.312C223.789 521.433 221.442 516.404 220.292 518.794Z" fill="#4B4B4B"/>
<path id="Path 38" d="M240.13 518.25L237.724 520.577" stroke="white" stroke-width="2" stroke-linecap="round"/>
<path id="Path 38_2" d="M243.64 520.014L241.233 522.342" stroke="white" stroke-width="2" stroke-linecap="round"/>
<path id="Path 38_3" d="M247.149 521.779L244.742 524.107" stroke="white" stroke-width="2" stroke-linecap="round"/>
<path id="Path_53" fill-rule="evenodd" clip-rule="evenodd" d="M211 321C211 321 219.753 417.38 220.026 424.079C220.298 430.779 217.214 442.342 217.274 454.874C217.334 467.406 218.4 511.575 218.4 511.575L237.71 511.984C237.71 511.984 245.825 432.167 245.913 420.198C246 408.229 246.744 322.152 246.744 322.152L211 321Z" fill="#383838"/>
<path id="Path_54" opacity="0.283552" fill-rule="evenodd" clip-rule="evenodd" d="M224.919 427.08L224.94 427.318C225.231 431.404 222.693 444.846 217.327 467.645L217.274 454.874C217.215 442.566 220.189 431.193 220.037 424.443L220.026 424.08C219.934 421.822 218.879 409.379 217.521 393.873L218.155 396.144C221.878 409.596 224.132 419.908 224.919 427.08Z" fill="white" fill-opacity="0.192499"/>
</g>
<g id="RLeg">
<path id="Path_55" fill-rule="evenodd" clip-rule="evenodd" d="M187.478 507.967L183.754 530.525L197.482 530.457L197.916 507.613L187.478 507.967Z" fill="#F8CFCF"/>
<path id="Path_56" fill-rule="evenodd" clip-rule="evenodd" d="M186.001 517.724C184.657 518.015 183.683 519.183 183.638 520.557L183.527 523.91C181.585 526.064 180.668 532.287 180.571 532.977C180.565 533.02 180.561 533.062 180.566 533.105C180.851 536.155 200.82 536.116 202.695 533.249C202.78 533.119 202.786 532.963 202.761 532.809C202.551 531.539 201.435 525.386 199.29 523.707L199.277 520.385C199.272 519.031 198.362 517.849 197.055 517.498L194.992 516.945C192.985 514.018 190.25 514.121 187.907 517.311L186.001 517.724Z" fill="#4B4B4B"/>
<path id="Path 39" d="M188.687 519.749H194.244" stroke="white" stroke-width="2" stroke-linecap="round"/>
<path id="Path 39_2" d="M188.687 522.393H194.244" stroke="white" stroke-width="2" stroke-linecap="round"/>
<path id="Path 39_3" d="M189.57 525.038H193.36" stroke="white" stroke-width="2" stroke-linecap="round"/>
<path id="Path_57" fill-rule="evenodd" clip-rule="evenodd" d="M194.401 322.265C194.401 322.265 188.268 388.331 188.351 400.983C188.434 413.635 190.239 419.191 187.671 428.267C185.102 437.343 182.912 509.786 182.912 509.786L201.903 511.865C201.903 511.865 214.036 434.347 215.355 423.599C216.674 412.852 232.98 321.354 232.98 321.354L194.401 322.265Z" fill="#2E2E2E"/>
<path id="Path_58" opacity="0.283552" fill-rule="evenodd" clip-rule="evenodd" d="M199.531 367.105L198.373 371.299C194.981 383.674 191.85 396.761 192.67 415.456L192.71 416.309C192.911 420.359 190.335 443.861 184.981 486.817L184.472 489.836C183.947 492.915 183.479 495.543 183.069 497.718L183.186 493.913C183.868 472.915 185.705 435.216 187.671 428.268C190.239 419.192 188.435 413.635 188.351 400.983C188.293 392.127 191.281 357.098 193.079 336.877L194.402 322.265L202.418 322.076L202.438 324.327C202.579 345.099 201.61 359.359 199.531 367.105Z" fill="white" fill-opacity="0.192499"/>
</g>
<g id="LArm_2">
<g id="Group 6">
<path id="Path_59" fill-rule="evenodd" clip-rule="evenodd" d="M287.835 240.566C287.835 240.566 286.25 231.828 286.82 230.058C287.307 228.529 291.909 226.324 291.909 226.324C291.909 226.324 299.913 213.818 301.665 215.091C303.09 216.123 297.497 225.343 297.497 225.343C297.497 225.343 302.597 230.636 302.526 233.002C302.455 235.368 294.201 242.774 294.201 242.774L287.835 240.566Z" fill="#F8CFCF"/>
<path id="Path_60" fill-rule="evenodd" clip-rule="evenodd" d="M292.081 226.198C292.081 226.198 295.626 225.721 296.19 226.812C296.671 227.742 293.726 230.379 293.726 231.12C293.726 231.861 293.768 237.472 294.005 237.523C294.242 237.574 297.556 228.367 296.849 226.42C296.267 224.821 292.081 226.198 292.081 226.198Z" fill="#F28585"/>
</g>
<path id="Path_61" fill-rule="evenodd" clip-rule="evenodd" d="M245.546 251.684C236.261 243.662 222.318 258.124 237.865 271.57C243.797 276.699 262.428 289.494 266.996 292.307C274.267 296.786 280.242 292.744 282.697 285.698C284.78 279.723 297.239 247.743 295.653 243.046C294.62 239.982 289.071 237.002 286.286 239.412C282.216 242.936 269.766 273.84 269.766 273.84C269.766 273.84 256.104 260.805 245.546 251.684Z" fill="#2DC52A"/>
<path id="Path_62" fill-rule="evenodd" clip-rule="evenodd" d="M269.766 273.839C269.766 273.839 273.843 278.786 274.138 278.03C274.432 277.275 270.904 270.918 270.904 270.918L269.766 273.839Z" fill="black" fill-opacity="0.159856"/>
<path id="Path 41" d="M285.204 241.393C288.444 239.893 291.983 241.747 293.933 244.723" stroke="#5386BF" stroke-linecap="round"/>
</g>
<g id="Head_2">
<path id="Path_63" fill-rule="evenodd" clip-rule="evenodd" d="M205.741 242.432C205.741 242.432 211.079 241.203 211.265 232.628C211.45 224.053 211.32 221.126 211.32 221.126L223.976 220.918C223.976 220.918 224.103 230.475 224.106 233.932C224.11 241.457 229.811 243.49 229.811 243.49C229.811 243.49 229.338 251.719 218.683 252.306C210.364 252.765 205.741 242.432 205.741 242.432Z" fill="#F8C5C5"/>
<g id="Head1">
<path id="Path_64" fill-rule="evenodd" clip-rule="evenodd" d="M235.251 211.882L234.969 219.986C237.36 217.23 238.976 213.814 239.454 209.433L235.251 211.882Z" fill="url(#paint6_linear_674_15288)"/>
<path id="Path_65" fill-rule="evenodd" clip-rule="evenodd" d="M210.158 216.791C204.913 216.592 205.768 224.121 211.218 224.11C211.218 224.11 217.074 235.654 226.268 235.684C230.696 235.698 232.142 231.831 233.47 229.116C234.798 226.401 235.772 222.34 235.853 219.854C235.94 217.203 235.951 208.493 235.951 208.493L209.954 208.481L210.158 216.791Z" fill="#F8CFCF"/>
<path id="Path_66" fill-rule="evenodd" clip-rule="evenodd" d="M235.951 212.489H217.668C217.476 215.728 216.378 218.418 213.592 220.402C213.671 225.146 215.29 228.601 218.098 231.023C220.542 224.155 235.495 226.034 234.407 230.515C232.122 239.929 210.707 240.142 212.006 218.476C211.152 217.334 208.097 217.121 207.091 218.263C205.373 213.529 206.106 206.833 211.074 205.864C207.174 195.777 260.196 193.643 235.951 212.489Z" fill="#424242"/>
<path id="Path_67" d="M224.236 230.099C224.236 230.099 226.619 231.815 229.754 229.939" stroke="#CC6969" stroke-linecap="round"/>
<path id="Path 8_2" d="M210.977 221.089C211.03 219.881 210.655 218.922 209.398 218.729" stroke="#DE6767" stroke-linecap="round"/>
</g>
</g>
<g id="Body_2">
<path id="Path_68" fill-rule="evenodd" clip-rule="evenodd" d="M208.089 241L223.192 250.796L230.002 242.887C230.002 242.887 244.348 247.327 247.01 252.518C250.85 260.008 245.79 320.022 247.996 323.643C252.697 331.36 246.447 336.658 225.757 338.604C205.067 340.55 186.712 338.957 190.042 328.658C193.374 318.359 180.519 251.147 191.852 247.445C195.393 246.288 208.089 241 208.089 241Z" fill="#2DC52A"/>
<path id="Path_69" fill-rule="evenodd" clip-rule="evenodd" d="M197.897 259.529C198.812 261.144 198.34 266.737 196.483 276.309C194.9 284.464 196.71 292.899 201.487 299.705L201.756 300.081C203.371 302.311 204.861 305.247 206.224 308.889C209.568 317.82 201.856 325.266 207.766 339.239L207.051 339.205C195.455 338.606 187.79 335.623 190.042 328.658C192.774 320.214 184.624 273.51 187.847 254.921C193.426 256.015 196.776 257.551 197.897 259.529Z" fill="black" fill-opacity="0.159856"/>
<path id="Path_70" fill-rule="evenodd" clip-rule="evenodd" d="M208.089 241L221.598 249.795C219.618 252.093 218.556 254.766 218.155 257.709C212.963 253.656 207.567 247.992 205.895 241.902L208.089 241Z" fill="#5E54C7"/>
<path id="Path_71" fill-rule="evenodd" clip-rule="evenodd" d="M224.26 249.566C226.544 251.108 228.366 253.839 229.85 256.944C231.628 253.376 232.309 248.664 232.309 243.639L230.078 242.759L224.26 249.566Z" fill="#5E54C7"/>
<path id="Path_72" fill-rule="evenodd" clip-rule="evenodd" d="M221.598 249.794L221.774 249.893C222.584 250.344 223.594 250.211 224.259 249.566C229.352 268.206 232.934 288.724 234.017 309.576L228.702 318.389L222.485 310.141C223.295 288.469 223.289 267.339 221.598 249.794Z" fill="#CBC6FF"/>
</g>
<g id="RArm_2">
<g id="Example Book Back">
<g id="Group 3">
<path id="Rectangle_16" d="M235.082 296.991C235.229 295.598 236.504 294.608 237.889 294.81L250.195 296.609C251.503 296.8 252.427 297.99 252.289 299.305L250.081 320.318C249.934 321.711 248.659 322.701 247.274 322.499L234.968 320.7C233.66 320.509 232.736 319.319 232.874 318.004L235.082 296.991Z" fill="#6182EC"/>
<path id="Rectangle_17" fill-rule="evenodd" clip-rule="evenodd" d="M236.548 296.567C236.699 295.128 238.052 294.129 239.472 294.407L252.34 296.931L261.144 296.783C262.623 296.759 263.791 298.033 263.636 299.505L261.431 320.486C261.301 321.725 260.267 322.671 259.022 322.692L249.615 322.85L236.317 320.241C235.065 319.996 234.207 318.835 234.341 317.566L236.548 296.567Z" fill="#96EFFA"/>
<path id="Rectangle_18" d="M238.872 301.488C238.97 300.561 239.835 299.913 240.751 300.081L246.657 301.162C247.48 301.312 248.048 302.071 247.96 302.903L247.708 305.297C247.611 306.224 246.746 306.871 245.829 306.704L239.924 305.623C239.101 305.472 238.533 304.714 238.621 303.882L238.872 301.488Z" fill="#74CFDB"/>
<path id="Rectangle_19" d="M251.357 297.632C251.403 297.192 251.797 296.873 252.236 296.92L252.753 296.974C253.192 297.02 253.511 297.414 253.465 297.853L250.917 322.097C250.871 322.536 250.477 322.855 250.038 322.809L249.521 322.755C249.081 322.708 248.762 322.315 248.809 321.875L251.357 297.632Z" fill="#EAEFFF"/>
<path id="Rectangle_20" d="M252.059 297.705C252.105 297.266 252.499 296.947 252.938 296.993L253.455 297.048C253.895 297.094 254.213 297.487 254.167 297.927L251.619 322.171C251.573 322.61 251.179 322.929 250.74 322.883L250.223 322.828C249.783 322.782 249.465 322.389 249.511 321.949L252.059 297.705Z" fill="#7AD2DD"/>
</g>
</g>
<path id="Path_73" fill-rule="evenodd" clip-rule="evenodd" d="M221.891 306.414C221.891 306.414 226.477 305.498 228.354 304.034C230.231 302.57 235.916 301.535 235.916 301.535L234.097 305.34C234.097 305.34 248.029 304.041 248.359 305.406C248.69 306.772 244.66 308.256 244.66 308.256C244.66 308.256 242.673 311.944 240.749 314.082C238.929 316.105 229.885 315.865 226.715 314.602C223.976 313.512 220.997 314.057 220.997 314.057L221.891 306.414Z" fill="#F8CFCF"/>
<path id="Path_74" fill-rule="evenodd" clip-rule="evenodd" d="M185.002 253.239C189.984 242.542 207.042 249.749 202.743 261.209C198.579 272.31 188.49 298.23 188.49 298.23C188.49 298.23 220.462 302.263 222.954 304.144C226.28 306.653 224.224 313.813 221.398 315.088C219.007 316.166 201.245 316.796 183.866 315.435C175.269 314.762 168.911 311.092 168.024 301.559C167.402 294.883 180.202 263.544 185.002 253.239Z" fill="#2DC52A"/>
<path id="Path_75" fill-rule="evenodd" clip-rule="evenodd" d="M188.501 298.224C188.501 298.224 185.844 303.243 186.603 303.345C187.363 303.447 191.224 298.591 191.224 298.591L188.501 298.224Z" fill="black" fill-opacity="0.159856"/>
<path id="Path 40" d="M220.704 303.599C221.69 306.727 220.997 310.396 219.629 312.988" stroke="#5386BF" stroke-linecap="round"/>
</g>
</g>
<g id="Vase2">
<g id="Group 39">
<path id="Rectangle_21" fill-rule="evenodd" clip-rule="evenodd" d="M85.3638 443.346C93.6298 439.634 103.337 443.361 106.997 451.65L109.859 458.135C101.593 461.847 91.8857 458.12 88.2264 449.831L85.3638 443.346Z" fill="#02D3AF"/>
<path id="Path_76" fill-rule="evenodd" clip-rule="evenodd" d="M97.1752 447.302C105.425 453.172 110.774 459.714 113.239 466.926C115.716 474.173 116.731 486.321 116.27 503.347C116.263 503.611 116.469 503.83 116.73 503.837C116.992 503.845 117.21 503.637 117.217 503.373C117.681 486.241 116.658 473.997 114.134 466.614C111.599 459.197 106.122 452.5 97.7211 446.521C97.5074 446.369 97.212 446.421 97.0613 446.636C96.9105 446.852 96.9615 447.15 97.1752 447.302Z" fill="#02B596"/>
<path id="Rectangle_22" fill-rule="evenodd" clip-rule="evenodd" d="M155.489 439.32C147.354 435.494 137.66 439.022 133.887 447.182L130.673 454.133C138.808 457.959 148.503 454.431 152.275 446.271L155.489 439.32Z" fill="#02D3AF"/>
<g id="Group 88">
<path id="Rectangle_23" d="M90.498 423.385C98.342 421.718 106.052 426.725 107.72 434.569L109.069 440.919C101.225 442.586 93.5151 437.579 91.8478 429.735L90.498 423.385Z" fill="#02D3AF"/>
<path id="Path_77" fill-rule="evenodd" clip-rule="evenodd" d="M96.2663 428.452C102.312 432.672 106.401 437.223 108.546 442.099L108.678 442.406L108.811 442.729C111.009 448.185 114.647 462.475 119.707 485.545C119.763 485.803 120.016 485.966 120.272 485.91C120.527 485.854 120.688 485.6 120.632 485.342L120.005 482.496L119.273 479.202C114.702 458.761 111.42 446.281 109.412 441.715C107.189 436.662 102.983 431.981 96.8039 427.667C96.5885 427.517 96.2935 427.571 96.1451 427.787C95.9966 428.004 96.0509 428.301 96.2663 428.452Z" fill="#02B596"/>
</g>
<path id="Rectangle_24" fill-rule="evenodd" clip-rule="evenodd" d="M143.624 418.56C134.979 418.408 127.848 425.295 127.699 433.94L127.565 441.653C136.21 441.805 143.341 434.919 143.491 426.274L143.624 418.56Z" fill="#02D3AF"/>
<path id="Path_78" fill-rule="evenodd" clip-rule="evenodd" d="M137.951 421.662C132.39 429.822 128.326 437.699 125.763 445.293C123.203 452.874 120.65 464.581 118.1 480.424C118.058 480.684 118.233 480.93 118.491 480.972C118.75 481.014 118.993 480.837 119.035 480.577L119.348 478.651L119.563 477.353C121.93 463.186 124.296 452.6 126.659 445.601C129.193 438.095 133.217 430.295 138.731 422.203C138.879 421.985 138.825 421.688 138.609 421.539C138.394 421.389 138.099 421.444 137.951 421.662Z" fill="#02B596"/>
<g id="Group 87">
<path id="Path_79" fill-rule="evenodd" clip-rule="evenodd" d="M125.906 416.317C125.906 416.317 121.396 429.164 119.402 448.089C117.409 467.014 118.572 485.939 118.572 485.939L120.773 486.139C120.773 486.139 119.591 464.051 121.01 448.173C122.43 432.295 127.006 416.417 127.006 416.417L125.906 416.317Z" fill="#02B596"/>
<ellipse id="Oval_6" cx="128.202" cy="409.952" rx="7.26372" ry="11.1372" transform="rotate(14 128.202 409.952)" fill="#C2FFF4"/>
<ellipse id="Oval_7" cx="128.348" cy="410.625" rx="5.05298" ry="7.26093" transform="rotate(14 128.348 410.625)" fill="#02D3AF"/>
<path id="Path_80" fill-rule="evenodd" clip-rule="evenodd" d="M127.727 417.005L131.784 404.341C132.026 403.588 131.616 402.781 130.869 402.538C130.123 402.294 129.322 402.707 129.081 403.46L125.023 416.124C124.782 416.877 125.192 417.685 125.938 417.928C126.685 418.171 127.485 417.758 127.727 417.005Z" fill="url(#paint7_linear_674_15288)"/>
</g>
<g id="Group 87_2">
<path id="Path_81" fill-rule="evenodd" clip-rule="evenodd" d="M103.951 403.586C103.951 403.586 109.779 415.892 113.74 434.505C117.701 453.117 118.522 472.06 118.522 472.06L116.354 472.489C116.354 472.489 115.221 450.399 112.15 434.756C109.078 419.113 102.868 403.801 102.868 403.801L103.951 403.586Z" fill="#02B596"/>
<ellipse id="Oval_8" rx="7.26372" ry="11.1372" transform="matrix(-0.939693 0.34202 0.34202 0.939693 101.002 397.496)" fill="#C2FFF4"/>
<ellipse id="Oval_9" rx="5.05298" ry="7.26093" transform="matrix(-0.939693 0.34202 0.34202 0.939693 100.928 398.181)" fill="#02D3AF"/>
<path id="Path_82" fill-rule="evenodd" clip-rule="evenodd" d="M102.213 404.462L96.8533 392.291C96.5347 391.568 96.8576 390.722 97.5745 390.402C98.2915 390.082 99.131 390.409 99.4496 391.132L104.809 403.303C105.127 404.026 104.805 404.872 104.088 405.192C103.371 405.512 102.531 405.185 102.213 404.462Z" fill="url(#paint8_linear_674_15288)"/>
</g>
<path id="Path_83" fill-rule="evenodd" clip-rule="evenodd" d="M151.02 441.348C139.792 445.742 131.964 450.819 127.537 456.599C123.111 462.378 120.186 471.342 118.744 483.49C118.713 483.752 118.898 483.99 119.157 484.021C119.417 484.053 119.653 483.866 119.684 483.604C121.108 471.611 123.982 462.804 128.287 457.183C132.591 451.563 140.282 446.575 151.362 442.239C151.606 442.143 151.727 441.867 151.632 441.621C151.538 441.375 151.264 441.253 151.02 441.348Z" fill="#02B596"/>
</g>
<g id="Group 38">
<path id="Path 151" fill-rule="evenodd" clip-rule="evenodd" d="M120.93 476.595C115.599 457.598 94.5469 463.157 94.5469 463.157C94.5469 463.157 110.308 468.308 118.346 476.595H120.93Z" fill="#02B596"/>
<path id="Path 151_2" fill-rule="evenodd" clip-rule="evenodd" d="M120.875 473.677C126.206 454.679 143.975 457.457 143.975 457.457C143.975 457.457 133.183 466.328 123.458 473.677H120.875Z" fill="#02B596"/>
<path id="Path 151_3" fill-rule="evenodd" clip-rule="evenodd" d="M120.836 477.452C116.07 460.599 127.187 446.092 127.187 446.092C127.187 446.092 126.624 466.052 122.76 476.222L120.836 477.452Z" fill="#02B596"/>
<path id="Path 114" fill-rule="evenodd" clip-rule="evenodd" d="M116.173 473.677C114.066 467.587 111.97 459.082 110.399 450.837C118.162 453.959 120.656 466.397 118.162 473.677H116.173Z" fill="#02D3AF"/>
<g id="Group 89">
<path id="Rectangle_25" fill-rule="evenodd" clip-rule="evenodd" d="M101.023 469.762C100.92 468.584 101.848 467.571 103.031 467.571H133.683C134.865 467.571 135.794 468.584 135.691 469.762L129.784 537.355C129.693 538.396 128.821 539.196 127.776 539.196H108.938C107.892 539.196 107.02 538.396 106.929 537.355L101.023 469.762Z" fill="#7569EC"/>
<mask id="mask1_674_15288" style="mask-type:alpha" maskUnits="userSpaceOnUse" x="101" y="467" width="35" height="73">
<path id="Rectangle_26" fill-rule="evenodd" clip-rule="evenodd" d="M101.023 469.762C100.92 468.584 101.848 467.571 103.031 467.571H133.683C134.865 467.571 135.794 468.584 135.691 469.762L129.784 537.355C129.693 538.396 128.821 539.196 127.776 539.196H108.938C107.892 539.196 107.02 538.396 106.929 537.355L101.023 469.762Z" fill="white"/>
</mask>
<g mask="url(#mask1_674_15288)">
<path id="Rectangle_27" fill-rule="evenodd" clip-rule="evenodd" d="M96.4102 463.099H109.354C101.333 493.552 125.48 514.488 109.354 544.941H96.4102V463.099Z" fill="#8175FF"/>
</g>
</g>
</g>
</g>
<g id="Chair4_2">
<path id="Path 25" fill-rule="evenodd" clip-rule="evenodd" d="M678.747 449.882L667.304 540.29L673.303 540.21L684.746 450.728L678.747 449.882Z" fill="#91D6FF"/>
<path id="Path_84" fill-rule="evenodd" clip-rule="evenodd" d="M645.448 449.882L634.005 540.29L640.004 540.21L651.447 450.728L645.448 449.882Z" fill="#91D6FF"/>
<path id="Path_85" fill-rule="evenodd" clip-rule="evenodd" d="M718.495 449.882L729.938 540.29L723.938 540.21L712.495 450.728L718.495 449.882Z" fill="#BFE7FF"/>
<path id="Path_86" fill-rule="evenodd" clip-rule="evenodd" d="M641.071 464.093C635.855 464.093 631.626 459.864 631.626 454.648C631.626 449.431 635.855 445.203 641.071 445.203H678.834C684.555 445.203 689.337 440.849 689.873 435.153L695.911 370.96C696.446 365.263 701.228 360.91 706.95 360.91H730.65C737.109 360.91 742.2 366.408 741.706 372.848L735.481 453.854C735.037 459.632 730.22 464.093 724.426 464.093H641.071Z" fill="#91D6FF"/>
<path id="Combined Shape_2" fill-rule="evenodd" clip-rule="evenodd" d="M631.628 454.567C631.68 454.568 631.732 454.568 631.784 454.568H714.914C720.707 454.568 725.524 450.108 725.969 444.332L732.189 363.614C732.257 362.734 732.22 361.872 732.09 361.038C731.538 360.954 730.973 360.91 730.396 360.91H706.808C701.087 360.91 696.306 365.262 695.769 370.957L689.736 434.916C689.198 440.611 684.417 444.963 678.697 444.963H641.047C635.844 444.963 631.626 449.181 631.626 454.384C631.626 454.445 631.627 454.506 631.628 454.567Z" fill="#BFE7FF"/>
</g>
<g id="Wom2.4">
<g id="LLeg_3">
<path id="Path_87" fill-rule="evenodd" clip-rule="evenodd" d="M643.11 511.415C643.11 511.415 648.356 522.01 644.055 525.349C639.748 528.688 628.372 534.946 628.372 534.946L658.512 533.052L651.812 509.944L643.11 511.415Z" fill="url(#paint9_linear_674_15288)"/>
<path id="Path_88" fill-rule="evenodd" clip-rule="evenodd" d="M655.526 521.002C654.577 521.455 656.137 525.712 652.8 525.413C649.464 525.115 647.369 520.714 644.909 521C642.448 521.285 640.886 525.716 636.201 528.803C631.518 531.89 624.573 535.572 625.038 538.675C625.503 541.779 636.432 542.61 641.969 541.582C647.506 540.556 650.09 538.33 653.682 538.507C657.274 538.685 659.532 538.245 660.658 535.938C661.783 533.632 656.62 520.48 655.526 521.002Z" fill="#EEDFE8"/>
<path id="Path_89" fill-rule="evenodd" clip-rule="evenodd" d="M655.259 535.167L654.952 535.149C650.5 534.774 647.446 537.573 643.209 538.363C638.971 539.153 627.796 539.426 626.011 536.775C625.926 536.65 625.848 536.521 625.775 536.39C625.175 537.128 624.893 537.916 625.038 538.835C625.503 541.789 636.433 542.58 641.97 541.602C647.507 540.625 650.092 538.507 653.684 538.676L654.323 538.7C657.546 538.787 659.602 538.293 660.661 536.231C660.918 535.729 660.86 534.648 660.602 533.283C659.099 534.311 657.203 535.226 655.259 535.167Z" fill="#EC7AA5"/>
<path id="Path_90" fill-rule="evenodd" clip-rule="evenodd" d="M688.512 418.031C679.388 418.439 628.602 429.671 619.376 431.58C610.149 433.488 602.348 443.814 609.384 455.771C617.286 469.194 637.676 507.313 642.627 515.906C645.077 520.16 657.438 517.775 654.534 510.636C649.122 497.328 646.608 463.898 632.808 451.709C632.808 451.709 679.218 459.786 699.265 450.534C713.834 443.808 710.538 417.046 688.512 418.031Z" fill="#413C75"/>
</g>
<g id="LArm_3">
<path id="Path_91" fill-rule="evenodd" clip-rule="evenodd" d="M624.859 361.074C624.859 361.074 624.963 355.65 622.365 351.77C619.768 347.89 619.665 343.768 617.7 343.903C615.734 344.038 617.68 353.618 617.68 353.618C617.68 353.618 615.187 352.665 613.395 351.46C611.604 350.255 606.171 344.314 604.901 345.366C602.749 347.16 606.216 357.279 608.104 359.302C609.999 361.326 619.348 366.98 619.348 366.98L646.883 394.719L651 379.993L624.859 361.074Z" fill="url(#paint10_linear_674_15288)"/>
<path id="Path_92" fill-rule="evenodd" clip-rule="evenodd" d="M679.934 358.625C675.689 368.47 667.917 386.555 664.713 391.951C660.698 398.708 654.366 401.685 646.953 396.672C645.402 395.623 640.948 391.954 640.948 391.954C641.607 385.532 644.006 380.164 648.142 375.848L650.951 378.172C650.951 378.172 658.917 357.752 665.325 345.923C670.874 335.689 686.395 343.659 679.934 358.625Z" fill="#EA5455"/>
<path id="Path_93" fill-rule="evenodd" clip-rule="evenodd" d="M650.868 378.183C650.868 378.183 648.729 385.439 648.229 385.019C647.728 384.599 648.611 376.286 648.611 376.286L650.868 378.183Z" fill="black" fill-opacity="0.159856"/>
</g>
<g id="Head_3">
<path id="Path_94" fill-rule="evenodd" clip-rule="evenodd" d="M698.278 320.411V329.122L704.675 323.972C704.675 323.972 706.642 315.626 708.241 309.427C709.244 305.539 711.687 292.383 701.851 293C693.793 278.796 670.327 287.587 670.14 304.94C669.916 325.811 670.099 333.937 670.099 333.937C683.369 334.698 690.837 332.78 698.278 320.411Z" fill="#422851"/>
<path id="Path_95" fill-rule="evenodd" clip-rule="evenodd" d="M704.813 336.997C704.813 336.997 698.863 335.6 698.656 325.849C698.45 316.099 698.595 312.77 698.595 312.77L685.487 312.534C685.487 312.534 685.344 323.401 685.342 327.331C685.336 336.889 678.308 337.672 678.308 337.672C678.308 337.672 679.509 345.557 691.387 346.225C700.66 346.748 704.813 336.997 704.813 336.997Z" fill="url(#paint11_linear_674_15288)"/>
<path id="Path_96" fill-rule="evenodd" clip-rule="evenodd" d="M701.65 307.901C707.498 307.675 706.544 316.235 700.47 316.223C700.47 316.223 696.942 328.384 684.692 328.384C674.744 328.384 674.097 314.211 674.007 311.383C673.91 308.369 673.898 298.465 673.898 298.465L701.878 298.452L701.65 307.901Z" fill="url(#paint12_linear_674_15288)"/>
<path id="Path_97" fill-rule="evenodd" clip-rule="evenodd" d="M702.103 307.845C699.68 308.245 699.974 309.849 699.315 309.709C695.969 308.997 682.425 309.936 680.681 302.488C678.511 307.141 677.98 308.285 673.202 309.534V295.899L703.424 293C703.424 293 702.955 307.704 702.103 307.845Z" fill="#422851"/>
<path id="Path_98" d="M687.054 320.214C687.054 320.214 684.136 322.685 680.757 320.372" stroke="#F77B7B" stroke-width="1.5" stroke-linecap="round"/>
<path id="Path_99" d="M685.128 323.075C684.22 323.494 683.346 323.525 682.566 323.107" stroke="#F49494" stroke-linecap="round"/>
<path id="Path 8_3" d="M701.054 312.505C700.994 311.131 701.413 310.041 702.813 309.822" stroke="#F77B7B" stroke-linecap="round"/>
</g>
<g id="Body_3">
<path id="Path_100" fill-rule="evenodd" clip-rule="evenodd" d="M703.484 336C696.016 340.574 687.382 342.251 679.345 337.284C666.23 363.145 662.961 394.002 666.116 428.106C685.241 435.678 701.315 434.189 715 425.534L703.484 336Z" fill="#FFE4F4"/>
<g id="RLeg_2">
<path id="Path_101" fill-rule="evenodd" clip-rule="evenodd" d="M610.416 511.84C610.416 511.84 610.574 524.311 600.298 528.973C590.029 533.635 582.712 533.355 583.644 536.959C584.575 540.563 611.305 540.418 613.801 537.599C615.929 535.201 620.555 512.872 621.829 514.579L610.416 511.84Z" fill="url(#paint13_linear_674_15288)"/>
<path id="Path_102" fill-rule="evenodd" clip-rule="evenodd" d="M617.879 529.452C616.304 528.318 614.98 534.853 610.703 533.036C606.425 531.219 609.798 525.213 607.106 524.105C604.414 522.997 599.216 528.953 592.312 530.401C585.408 531.847 579.803 533.114 578.21 535.801C576.838 538.111 578.21 538.849 578.21 538.849C578.21 538.849 584.856 542.168 588.986 542.899C594.986 543.96 612.325 544.667 614.225 542.732C615.392 541.545 618.667 530.019 617.879 529.452Z" fill="#EEDFE8"/>
<path id="Path_103" fill-rule="evenodd" clip-rule="evenodd" d="M577.835 536.073C576.533 538.195 578.587 539.299 578.833 539.422L579.824 539.844C581.704 540.625 585.946 542.302 589.081 542.901C594.829 544 612.628 544.651 614.543 542.761C614.879 542.43 615.295 541.217 615.697 539.641L614.476 539.774C608.598 540.396 595.477 541.523 589.002 539.998C583.254 538.644 580.108 536.416 578.673 535.116C578.324 535.415 578.042 535.733 577.835 536.073Z" fill="#EC7AA5"/>
<path id="Path_104" fill-rule="evenodd" clip-rule="evenodd" d="M717.102 414.176C717.102 414.176 730.368 442.192 711.725 451.812C693.696 461.115 639.724 450.112 639.724 450.112C639.724 450.112 640.689 457.876 639.724 464.802C637.206 482.889 625.226 513.023 622.692 516.809C619.187 522.045 608.51 518.096 608.309 513.737C608.107 509.377 616.357 453.693 617.612 443.074C618.86 432.455 622.8 430.913 634.309 428.01C636.953 427.343 668.22 419.573 671.084 419.799C695.695 421.745 717.102 414.176 717.102 414.176Z" fill="#524D87"/>
<path id="Path_105" fill-rule="evenodd" clip-rule="evenodd" d="M702.56 448.92C684.711 450.92 637.456 446.798 635.558 448.671C633.746 450.46 634.049 481.575 629.984 499.585L630.602 497.884C634.425 487.267 638.394 474.354 639.724 464.802C640.689 457.876 639.724 450.112 639.724 450.112L641.901 450.533C652.16 452.46 695.86 459.999 711.725 451.812C720.322 447.376 723.83 440.006 722.249 429.703C719.527 441.349 712.964 447.755 702.56 448.92Z" fill="white" fill-opacity="0.056108"/>
</g>
<path id="Path_106" fill-rule="evenodd" clip-rule="evenodd" d="M703.158 336.021C690.789 376.537 683.372 433.979 722 423.986C701.481 386.205 729.376 369.201 723.053 349.676C720.891 343 703.319 335.497 703.158 336.021Z" fill="#EA5455"/>
<path id="Path_107" fill-rule="evenodd" clip-rule="evenodd" d="M717.108 352.845C703.129 354.955 714.653 379.362 710.038 383.039C705.424 386.716 697.392 387.113 696.526 389.359C694.786 393.874 703.2 405.271 721.768 423.55L722.001 423.986C704.126 391.075 722.989 373.93 723.97 357.151C721.899 353.902 719.611 352.467 717.108 352.845Z" fill="black" fill-opacity="0.159856"/>
<path id="Path_108" fill-rule="evenodd" clip-rule="evenodd" d="M680 337C675.28 348.838 673.011 358.127 670.894 375.503C669.129 389.975 670.013 419.84 670.013 419.84L664.18 420.987C664.18 420.987 660.01 374.848 661.404 368.907C663.744 358.938 665.329 353.113 668.418 344C670.12 338.998 680 337 680 337Z" fill="#EA5455"/>
</g>
<g id="RArm_3">
<path id="Path_109" fill-rule="evenodd" clip-rule="evenodd" d="M700.56 382.017C700.56 382.017 692.945 374.392 690.307 373.507C687.67 372.622 673.223 371.559 673.321 373.559C673.432 375.701 682.728 375.578 683.588 376.632C684.447 377.685 685.643 385.888 688.892 386.697C692.135 387.506 698.858 389.9 698.858 389.9L728.782 405.361L725.594 389.901L700.56 382.017Z" fill="url(#paint14_linear_674_15288)"/>
<path id="Path_110" fill-rule="evenodd" clip-rule="evenodd" d="M723.481 349.731C732.558 362.542 740.308 382.056 743.283 389.664C746.257 397.272 743.257 408.747 730.176 406.494C728.619 406.226 726.085 405.24 726.085 405.24C721.276 398.647 720.432 392.987 722.227 387.947L723.919 388.661C723.919 388.661 710.918 365.617 707.743 359.439C702.44 349.122 715.486 338.444 723.481 349.731Z" fill="#EA5455"/>
<path id="Path_111" fill-rule="evenodd" clip-rule="evenodd" d="M723.918 388.661C723.918 388.661 730.522 391.886 729.691 390.468C728.861 389.049 721.403 384.182 721.403 384.182L723.918 388.661Z" fill="black" fill-opacity="0.159856"/>
</g>
</g>
<g id="Example Ipad1">
<g id="Group 3_2">
<path id="Rectangle_28" fill-rule="evenodd" clip-rule="evenodd" d="M585.968 346.045C585.639 344.724 586.442 343.387 587.763 343.058L611.232 337.206C612.553 336.877 613.89 337.68 614.219 339.001L622.741 373.181C623.07 374.501 622.267 375.839 620.947 376.168L597.477 382.019C596.157 382.349 594.819 381.545 594.49 380.225L585.968 346.045Z" fill="url(#paint15_linear_674_15288)"/>
<path id="Rectangle_29" fill-rule="evenodd" clip-rule="evenodd" d="M586.883 346.595C586.554 345.275 587.358 343.938 588.678 343.608L612.147 337.757C613.468 337.428 614.805 338.231 615.134 339.552L623.656 373.732C623.985 375.052 623.182 376.389 621.862 376.719L598.392 382.57C597.072 382.899 595.734 382.096 595.405 380.775L586.883 346.595Z" fill="#518DF8"/>
<path id="Rectangle_30" d="M587.884 346.896C587.588 345.708 588.311 344.504 589.499 344.208L611.571 338.704C612.76 338.408 613.963 339.131 614.26 340.32L621.965 371.223C622.261 372.411 621.538 373.614 620.349 373.911L598.277 379.414C597.089 379.71 595.885 378.987 595.589 377.799L587.884 346.896Z" fill="white"/>
</g>
</g>
<g id="Group 26_10">
<g id="Group 25">
<path id="Rectangle_31" fill-rule="evenodd" clip-rule="evenodd" d="M383.205 395.872H394.622V540.751H383.205L383.205 395.872Z" fill="#E9E9E9"/>
<path id="Rectangle_32" fill-rule="evenodd" clip-rule="evenodd" d="M271.376 400.634L361.565 400.634V427.542H286.404V540.751H271.376V400.634Z" fill="#D3D3D3"/>
<path id="Rectangle_33" fill-rule="evenodd" clip-rule="evenodd" d="M270.793 400.634H278.793V540.751H270.793V400.634Z" fill="#DBDBDB"/>
</g>
<g id="Group 25_2">
<path id="Rectangle_34" fill-rule="evenodd" clip-rule="evenodd" d="M663.431 400.634H679.431V540.751H663.431V400.634Z" fill="#E9E9E9"/>
<path id="Rectangle_35" fill-rule="evenodd" clip-rule="evenodd" d="M663.431 395.872H673.431V540.751H663.431L663.431 395.872Z" fill="#DBDBDB"/>
<path id="Rectangle_36" fill-rule="evenodd" clip-rule="evenodd" d="M531.007 400.634L670.007 400.634V427.19H549.714V540.751H531.007V400.634Z" fill="#D3D3D3"/>
<path id="Rectangle_37" fill-rule="evenodd" clip-rule="evenodd" d="M282.591 395.872L531.48 395.872V436.102H282.591V395.872Z" fill="#DBDBDB"/>
<path id="Rectangle_38" fill-rule="evenodd" clip-rule="evenodd" d="M525.771 400.634H537.188V436.101H525.771V400.634Z" fill="#E9E9E9"/>
<path id="Rectangle_39" fill-rule="evenodd" clip-rule="evenodd" d="M531.043 400.634H540.043V540.751H531.043V400.634Z" fill="#DBDBDB"/>
<path id="Rectangle_40" fill-rule="evenodd" clip-rule="evenodd" d="M532.477 403.015C532.477 399.07 535.675 395.872 539.62 395.872L684.746 395.872C688.691 395.872 691.889 399.07 691.889 403.015C691.889 406.96 688.691 410.158 684.746 410.158H539.62C535.675 410.158 532.477 406.96 532.477 403.015Z" fill="#E9E9E9"/>
<path id="Rectangle_41" fill-rule="evenodd" clip-rule="evenodd" d="M279.736 398.729H528.626V413.016H279.736V398.729Z" fill="#E9E9E9"/>
<path id="Rectangle_42" fill-rule="evenodd" clip-rule="evenodd" d="M258.806 403.015C258.806 399.07 262.004 395.872 265.949 395.872H542.413C546.359 395.872 549.557 399.07 549.557 403.015C549.557 406.96 546.359 410.158 542.413 410.158H265.949C262.004 410.158 258.806 406.96 258.806 403.015Z" fill="#DBDBDB"/>
</g>
</g>
<g id="Men2.8">
<g id="RLeg_3">
<path id="Path_112" fill-rule="evenodd" clip-rule="evenodd" d="M303.389 505.181L295.491 530.824L312.058 531.425C312.058 531.425 310.187 522.653 312.858 514.43C315.001 507.829 316.749 504.535 316.749 504.535L303.389 505.181Z" fill="#92691F"/>
<path id="Path_113" fill-rule="evenodd" clip-rule="evenodd" d="M311.625 524.378C311.625 524.378 317.948 530.238 324.029 532.41C330.11 534.581 332.437 534.605 332.871 535.421L332.95 535.577C334.2 538.159 333.442 541.589 319.581 541.779C316.212 541.825 312.709 539.868 303.411 537.798L302.739 541.417C297.535 541.349 294.499 540.528 293.63 538.956C292.32 536.605 294.546 525.011 296.082 524.791C297.617 524.572 297.921 529.287 302.043 529.39C306.173 529.494 311.625 524.378 311.625 524.378Z" fill="#391B0B"/>
<path id="Combined Shape_3" fill-rule="evenodd" clip-rule="evenodd" d="M323.882 532.357C323.694 532.519 323.468 532.691 323.202 532.855C322.277 533.422 320.885 533.873 319.012 533.445C318.061 533.228 317 532.619 315.959 531.853C314.912 531.083 313.862 530.137 312.929 529.222C311.996 528.306 311.177 527.416 310.591 526.756C310.298 526.425 310.063 526.152 309.901 525.961C309.876 525.931 309.852 525.903 309.83 525.877C309.968 525.771 310.099 525.668 310.224 525.569C310.242 525.59 310.262 525.614 310.283 525.638C310.442 525.826 310.675 526.097 310.965 526.424C311.546 527.078 312.357 527.959 313.28 528.865C314.203 529.771 315.234 530.699 316.255 531.45C317.281 532.204 318.274 532.763 319.124 532.957C320.854 533.353 322.114 532.935 322.94 532.428C323.088 532.337 323.223 532.244 323.344 532.151C323.523 532.222 323.703 532.291 323.882 532.357Z" fill="#81411E"/>
<path id="Path_114" fill-rule="evenodd" clip-rule="evenodd" d="M265.632 424.913C265.632 424.913 331.425 430.174 340.49 430.455C349.555 430.735 356.481 443.674 349.461 455.617C341.577 469.024 320.156 507.621 315.968 516.546C312.426 524.09 296.328 520.999 299.225 509.473C302.683 495.68 309.129 464.733 322.898 452.558C322.898 452.558 289.411 464.699 270.549 452.924C259.788 446.207 265.632 424.913 265.632 424.913Z" fill="#7A3636"/>
<path id="Path_115" fill-rule="evenodd" clip-rule="evenodd" d="M349.461 455.617L348.435 457.376C344.445 464.272 338.002 475.923 331.851 487.27L332.174 486.231C336.932 471.092 344.323 453.258 347.483 447.817C348.591 445.91 350.099 443.966 352.007 441.985C352.817 446.14 352.202 450.954 349.461 455.617Z" fill="white" fill-opacity="0.192499"/>
</g>
<g id="LLeg_4">
<path id="Path_116" fill-rule="evenodd" clip-rule="evenodd" d="M374.988 505.479C374.988 505.479 379.386 525.038 385.111 527.131C387.315 527.937 368.219 530.238 368.219 530.238L363.425 511.474L374.988 505.479Z" fill="#92691F"/>
<path id="Path_117" fill-rule="evenodd" clip-rule="evenodd" d="M365.461 523.631L365.142 540.142L371.724 540.192L371.791 536.48C371.791 536.48 376.921 539.556 380.395 540.638C385.067 542.097 403.526 541.333 405.611 539.11C407.697 536.877 407.742 533.324 403.46 532.887C399.179 532.451 392.099 531.151 389.051 528.818C385.364 526.007 383.961 521.547 382.89 521.543C381.25 521.537 381.124 526.784 372.804 526.858C369.638 526.886 365.461 523.631 365.461 523.631Z" fill="#391B0B"/>
<path id="Path_118" fill-rule="evenodd" clip-rule="evenodd" d="M381.187 523.015C381.187 523.015 385.432 529.639 387.955 530.598C390.479 531.548 392.513 530.482 392.513 530.482C392.513 530.482 388.161 528.748 386.48 525.722C382.673 518.867 381.911 522.355 381.187 523.015Z" fill="#81411E"/>
<path id="Path_119" fill-rule="evenodd" clip-rule="evenodd" d="M271.076 430.227C271.076 430.227 270.984 451.248 285.107 456.532C299.231 461.815 345.221 459.827 345.221 459.827C345.221 459.827 359.815 513.525 363.312 518.755C366.809 523.985 383.391 524.527 382.494 512.481C381.591 500.435 375.12 455.713 373.868 445.107C372.623 434.5 368.691 431.96 357.209 430.06C353.173 429.392 354.886 428.322 328.942 427.107C323.37 426.846 314.021 428.932 305.429 429.877C296.838 430.822 271.076 430.227 271.076 430.227Z" fill="#7A3636"/>
<path id="Path_120" fill-rule="evenodd" clip-rule="evenodd" d="M316.979 430.681L316.979 428.24L318.129 428.068C322.311 427.447 326.113 426.974 328.942 427.107L331.925 427.252C354.758 428.407 353.335 429.418 357.209 430.06L357.955 430.186C368.618 432.033 372.476 434.614 373.782 444.419L374.147 447.37C375.876 460.962 381.645 501.158 382.495 512.481C382.562 513.387 382.531 514.222 382.413 514.989L379.052 498.062C374.098 472.966 371.322 458.096 370.724 453.452L370.599 452.487C369.48 444.244 366.552 434.016 357.103 434.683L356.287 434.751C349.634 435.258 337.018 433.982 318.438 430.923L316.979 430.681Z" fill="white" fill-opacity="0.192499"/>
<ellipse id="Oval_10" cx="384.321" cy="446.912" rx="3.77561" ry="6.61391" transform="rotate(13 384.321 446.912)" fill="white" fill-opacity="0.192499"/>
</g>
<g id="RArm_4">
<path id="Path_121" fill-rule="evenodd" clip-rule="evenodd" d="M281.263 402.315C281.263 402.315 296.654 405.878 296.498 407.277C296.345 408.683 289.569 408.899 289.569 408.899C289.569 408.899 302.095 416.987 301.098 418.566C300.101 420.144 291.934 421.921 288.545 420.648C285.154 419.376 276.367 410.113 276.367 410.113L281.263 402.315Z" fill="url(#paint16_linear_674_15288)"/>
<path id="Path_122" fill-rule="evenodd" clip-rule="evenodd" d="M281.403 356.716C276.248 363.079 258.67 382.513 258.67 382.513C258.67 382.513 276.248 395.033 280.674 397.681C287.932 402.022 280.551 413.537 275.228 412.258C268.015 410.52 249.807 397.959 241.251 392.876C232.696 387.792 235.969 379.585 242.299 372.095C247.162 366.343 257.732 354.557 265.169 344.211C272.569 333.917 291.407 344.37 281.403 356.716Z" fill="#EA5455"/>
<path id="Path 15" fill-rule="evenodd" clip-rule="evenodd" d="M258.67 382.513C258.67 382.513 253.721 387.281 254.235 387.65C254.75 388.019 260.713 383.979 260.713 383.979L258.67 382.513Z" fill="black" fill-opacity="0.159856"/>
</g>
<g id="Head_4">
<path id="Path_123" fill-rule="evenodd" clip-rule="evenodd" d="M312.096 310.007C316.419 310.481 316.112 318.089 310.85 318.486C309.774 325.821 305.938 329.315 301.262 329.72L301.521 340.813L280.836 340.801C280.836 340.801 286.661 332.964 286.371 322.235C286.08 311.506 286.565 301.427 286.565 301.427L313.358 301.908L312.096 310.007Z" fill="url(#paint17_linear_674_15288)"/>
<path id="Path_124" fill-rule="evenodd" clip-rule="evenodd" d="M303.634 289.313C319.571 293.336 312.996 310.328 312.996 310.328C308.181 309.671 303.547 315.514 301.79 321.244C296.709 326.467 290.128 326.458 285.751 323.416C285.751 323.416 279.731 304.793 281.7 298.592C283.67 292.391 289.108 285.647 303.634 289.313Z" fill="#2C272E"/>
</g>
<g id="Body_4">
<path id="Path_125" fill-rule="evenodd" clip-rule="evenodd" d="M265.958 343.287C264.527 345.723 263.502 355.535 265.958 394.408C267.23 414.537 261.82 434.376 263.218 443.109C264.616 451.843 274.224 452.886 274.224 452.886L279.827 434.657L282.463 452.886C282.463 452.886 322.197 449.17 325.679 440.125C329.168 431.06 324.786 409.75 323.744 389.683C322.698 369.537 323.483 348.858 321.557 345.723C317.714 339.468 307.822 336.545 301.683 335.61C293.892 334.422 283.834 334.377 277.855 336.273C271.876 338.168 267.389 340.851 265.958 343.287Z" fill="#EA5455"/>
<path id="Path_126" fill-rule="evenodd" clip-rule="evenodd" d="M306.387 357.13C309.523 380.265 313.716 396.498 318.966 405.829C321.137 409.688 323.342 411.279 325.582 410.602L325.05 405.475C324.52 400.287 324.017 394.942 323.744 389.683C323.553 386.016 323.424 382.33 323.327 378.737L306.387 357.13Z" fill="black" fill-opacity="0.159856"/>
<path id="Path_127" fill-rule="evenodd" clip-rule="evenodd" d="M277.855 336.273C277.493 336.388 277.142 336.507 276.803 336.631C285.388 340.374 299.563 339.874 307.269 336.824C305.261 336.258 303.336 335.862 301.683 335.61C293.892 334.422 283.835 334.377 277.855 336.273Z" fill="#E5AA41"/>
</g>
<g id="LArm_4">
<path id="Path_128" fill-rule="evenodd" clip-rule="evenodd" d="M383.155 377.168C383.155 377.168 395.94 368.633 398.199 366.919C400.451 365.212 403.278 352.268 401.526 350.452C400.68 349.574 394.284 355.486 393.143 356.278C392.009 357.062 386.21 360.556 386.21 360.556C386.21 360.556 387.851 350.649 386.438 349.85C385.393 349.268 383.302 351.818 383.023 354.513C382.743 357.208 379.836 360.723 379.46 364.813C379.291 366.6 377.532 370.013 377.532 370.013L383.155 377.168Z" fill="url(#paint18_linear_674_15288)"/>
<path id="Path_129" fill-rule="evenodd" clip-rule="evenodd" d="M307.015 360.801C311.914 370.98 320.234 385.863 324.804 394.589C330.212 404.915 336.656 409.29 349.653 401.628C360.538 395.211 376.234 384.89 384.344 379.281C391.891 374.061 382.97 361.175 375.84 365.529C366.381 371.297 342.194 382.728 342.194 382.728C342.194 382.728 329.747 359.991 324.579 349.075C318.005 335.201 297.534 341.101 307.015 360.801Z" fill="#EA5455"/>
<path id="Path_130" fill-rule="evenodd" clip-rule="evenodd" d="M342.194 382.728C342.194 382.728 344.47 390.744 345.007 390.428C345.544 390.111 344.63 381.579 344.63 381.579L342.194 382.728Z" fill="black" fill-opacity="0.159856"/>
</g>
</g>
<g id="Chair8">
<path id="Path_131" fill-rule="evenodd" clip-rule="evenodd" d="M291.768 461.22L280.325 542.179L286.325 542.099L297.768 462.067L291.768 461.22Z" fill="#BFE7FF"/>
<path id="Path_132" fill-rule="evenodd" clip-rule="evenodd" d="M329.93 461.22L341.373 542.179L335.374 542.099L323.931 462.067L329.93 461.22Z" fill="#91D6FF"/>
<path id="Path_133" fill-rule="evenodd" clip-rule="evenodd" d="M256.883 461.22L245.44 542.179L251.44 542.099L262.883 462.067L256.883 461.22Z" fill="#BFE7FF"/>
<path id="Path_134" fill-rule="evenodd" clip-rule="evenodd" d="M334.307 465.983C339.523 465.983 343.752 461.754 343.752 456.537C343.752 451.321 339.523 447.092 334.307 447.092H296.544C290.823 447.092 286.041 442.739 285.505 437.043L279.467 372.849C278.931 367.153 274.149 362.8 268.428 362.8H244.728C238.269 362.8 233.178 368.298 233.672 374.737L239.897 455.744C240.341 461.521 245.158 465.983 250.952 465.983H334.307Z" fill="#BFE7FF"/>
<path id="Combined Shape_4" fill-rule="evenodd" clip-rule="evenodd" d="M343.75 456.457C343.698 456.458 343.646 456.458 343.594 456.458H291.611C285.818 456.458 281.001 451.998 280.556 446.222L274.248 364.363C277.192 366.121 279.266 369.21 279.609 372.846L285.642 436.806C286.18 442.501 290.961 446.853 296.681 446.853H334.331C339.534 446.853 343.752 451.07 343.752 456.273C343.752 456.335 343.751 456.396 343.75 456.457Z" fill="#91D6FF"/>
</g>
<g id="Front Laptop3">
<path id="Rectangle_43" fill-rule="evenodd" clip-rule="evenodd" d="M557.981 394.543C557.981 394.131 557.647 393.796 557.235 393.796H473.099C472.686 393.796 472.352 394.131 472.352 394.543V395.64C472.352 396.052 472.686 396.386 473.099 396.386H557.235C557.647 396.386 557.981 396.052 557.981 395.64V394.543Z" fill="url(#paint19_linear_674_15288)"/>
<path id="Rectangle_44" fill-rule="evenodd" clip-rule="evenodd" d="M557.989 394.543C557.989 394.131 557.655 393.796 557.243 393.796H524.916C524.504 393.796 524.169 394.131 524.169 394.543V395.64C524.169 396.052 524.504 396.386 524.916 396.386H557.243C557.655 396.386 557.989 396.052 557.989 395.64V394.543Z" fill="#518DF8"/>
<path id="Rectangle_45" fill-rule="evenodd" clip-rule="evenodd" d="M564.093 358.353C564.368 356.201 562.692 354.296 560.522 354.296H504.711C502.899 354.296 501.37 355.642 501.14 357.439L496.989 389.852C496.713 392.004 498.39 393.909 500.56 393.909H556.371C558.182 393.909 559.712 392.563 559.942 390.766L564.093 358.353Z" fill="#518DF8"/>
<path id="Rectangle_46" fill-rule="evenodd" clip-rule="evenodd" d="M562.393 358.353C562.669 356.201 560.992 354.296 558.823 354.296H504.191C502.38 354.296 500.85 355.642 500.62 357.439L496.469 389.852C496.194 392.004 497.87 393.909 500.04 393.909H554.672C556.483 393.909 558.012 392.563 558.243 390.766L562.393 358.353Z" fill="url(#paint20_linear_674_15288)"/>
<path id="Rectangle_47" d="M560.445 359.821C560.693 357.884 559.184 356.17 557.231 356.17H505.473C503.842 356.17 502.466 357.382 502.259 358.999L498.519 388.236C498.271 390.173 499.78 391.887 501.733 391.887H553.491C555.122 391.887 556.498 390.675 556.705 389.058L560.445 359.821Z" fill="white"/>
</g>
<g id="Wom3.8">
<g id="RArm_5">
<path id="Path_135" fill-rule="evenodd" clip-rule="evenodd" d="M423.645 404.22C423.645 404.22 437.246 407.393 437.108 408.638C436.973 409.89 430.985 410.082 430.985 410.082C430.985 410.082 442.054 417.285 441.173 418.69C440.292 420.095 433.075 421.678 430.08 420.545C427.083 419.412 419.318 411.164 419.318 411.164L397.531 399.463L404.813 389.859L423.645 404.22Z" fill="url(#paint21_linear_674_15288)"/>
<path id="Path_136" fill-rule="evenodd" clip-rule="evenodd" d="M423.768 363.617C419.212 369.282 403.679 386.587 403.679 386.587L406.745 388.888L396.773 400.985C396.773 400.985 390.405 397.083 388.286 395.815C380.725 391.288 383.618 383.98 389.212 377.311C393.509 372.189 402.85 361.695 409.422 352.482C415.962 343.316 432.609 352.623 423.768 363.617Z" fill="#FFB66F"/>
<path id="Path 15_2" fill-rule="evenodd" clip-rule="evenodd" d="M403.679 386.587C403.679 386.587 399.305 390.833 399.76 391.162C400.215 391.491 405.484 387.893 405.484 387.893L403.679 386.587Z" fill="black" fill-opacity="0.159856"/>
<path id="Path 76" fill-rule="evenodd" clip-rule="evenodd" d="M406.127 387.623L393.129 400.491L399.628 404.744L408.557 389.459L406.127 387.623Z" fill="#FFEDC2"/>
</g>
<g id="LLeg_5">
<path id="Path_137" fill-rule="evenodd" clip-rule="evenodd" d="M447.635 503.233L440.604 525.882L452.422 526.412C452.422 526.412 450.756 518.665 453.134 511.403C455.041 505.572 456.598 502.663 456.598 502.663L447.635 503.233Z" fill="url(#paint22_linear_674_15288)"/>
<path id="Path_138" fill-rule="evenodd" clip-rule="evenodd" d="M452.518 519.78C452.518 519.78 452.271 525.546 454.285 527.369C456.298 529.19 466.978 535.917 467.873 537.272C468.768 538.628 467.455 540.283 467.455 540.283C467.455 540.283 456.551 541.993 451.407 539.354C447.694 537.448 445.041 535.891 445.041 535.891L443.901 538.82L437.947 537.965C437.947 537.965 436.112 533.316 436.9 531.004C437.689 528.692 441.758 517.889 441.758 517.889C441.758 517.889 452.518 519.78 452.518 519.78Z" fill="#391B0B"/>
<path id="Path_139" fill-rule="evenodd" clip-rule="evenodd" d="M413.248 426.031C422.137 426.898 465.921 437.326 474.936 439.178C483.951 441.03 491.573 451.051 484.698 462.654C476.977 475.679 455.15 516.158 455.15 516.158C455.015 516.191 454.883 516.249 454.747 516.249C450.307 516.249 446.349 515.641 442.538 512.985C442.538 512.985 448.329 470.54 461.812 458.712C461.812 458.712 426.994 471.231 409.582 457.571C399.31 449.513 403.452 425.075 413.248 426.031Z" fill="#33373E"/>
<path id="Combined Shape_5" fill-rule="evenodd" clip-rule="evenodd" d="M481.574 442.255L479.183 472.279C479.38 471.928 479.574 471.582 479.767 471.24L482.045 442.637C481.89 442.507 481.733 442.379 481.574 442.255Z" fill="white" fill-opacity="0.192499"/>
</g>
<g id="RLeg_4">
<path id="Path_140" fill-rule="evenodd" clip-rule="evenodd" d="M513.096 501.444C513.096 501.444 516.973 518.714 522.018 520.562C523.961 521.273 510.032 523.305 510.032 523.305L505.807 506.737L513.096 501.444Z" fill="url(#paint23_linear_674_15288)"/>
<path id="Path_141" fill-rule="evenodd" clip-rule="evenodd" d="M508.257 518.544L511.935 540.165L518.311 539.157L517.524 533.811C517.524 533.811 520.32 538.468 523.439 538.267C526.567 538.065 542.209 535.707 542.209 535.707C542.209 535.707 542.561 530.529 535.366 529.346C529.381 528.363 519.176 516.809 519.176 516.809L508.257 518.544Z" fill="#391B0B"/>
<path id="Path_142" fill-rule="evenodd" clip-rule="evenodd" d="M420.706 423.171C420.706 423.171 407.874 450.35 425.907 459.682C443.346 468.708 489.75 457.063 489.75 457.063C489.75 457.063 488.817 464.596 489.75 471.314C492.186 488.861 504.168 510.449 505.258 514.007C505.807 515.799 519.171 513.151 519.171 511.026C519.171 508.901 512.353 460.537 511.139 450.236C509.932 439.934 506.12 438.438 494.988 435.622C492.43 434.975 459.284 427.437 456.513 427.656C432.707 429.544 420.706 423.171 420.706 423.171Z" fill="#42474F"/>
<path id="Path_143" fill-rule="evenodd" clip-rule="evenodd" d="M456.513 427.657C459.284 427.437 492.43 434.975 494.988 435.622L496.815 436.091C506.311 438.575 509.83 440.429 511.053 449.547L511.382 452.165C512.384 459.805 515.092 477.769 517.235 492.725C514.817 487.229 512.816 481.129 511.232 474.427C507.54 458.808 508.33 445.983 507.339 443.737C506.347 441.491 457.859 434.32 449.528 432.841C445.901 432.197 443.856 430.599 443.391 428.048C447.417 428.162 451.791 428.031 456.513 427.657Z" fill="white" fill-opacity="0.192499"/>
</g>
<g id="Head_5">
<path id="Path_144" fill-rule="evenodd" clip-rule="evenodd" d="M450.203 318.878C454.055 319.3 453.782 326.08 449.093 326.434C448.135 332.97 444.717 336.084 440.55 336.445L440.781 346.331L422.348 346.32C422.348 346.32 427.539 339.336 427.28 329.775C427.021 320.213 427.454 311.231 427.454 311.231L451.328 311.66L450.203 318.878Z" fill="url(#paint24_linear_674_15288)"/>
<path id="Path_145" fill-rule="evenodd" clip-rule="evenodd" d="M451.042 319.386C446.555 317.609 443.241 325.257 439.808 330.573C436.375 335.889 427.482 334.986 426.256 330.573C421.615 320.909 417.616 307.77 423.031 306.691C423.794 292.723 460.308 296.021 451.042 319.386Z" fill="#9E5229"/>
<path id="Combined Shape_6" fill-rule="evenodd" clip-rule="evenodd" d="M426.018 301.156H433.931H434.042L434.117 301.24C441.146 309.095 442.72 320.664 439.435 331.099C439.181 331.427 438.905 331.727 438.609 332.001C442.288 321.471 440.879 309.618 433.818 301.656H425.43C425.617 301.483 425.813 301.316 426.018 301.156Z" fill="black" fill-opacity="0.199355"/>
<ellipse id="Oval_11" rx="4.4008" ry="4.40615" transform="matrix(-1 0 0 1 430.868 301.406)" fill="#FB9934"/>
</g>
<g id="Body_5">
<path id="Path_146" fill-rule="evenodd" clip-rule="evenodd" d="M454.71 348.001C458.79 353.987 465.591 374.303 465.977 378.873C466.411 384.145 460.751 392.543 460.658 400.175C460.576 407.809 464.88 426.915 463.587 429.062C462.303 431.208 419.69 443.621 417.29 442.601C414.889 441.581 406.602 430.581 408.496 426.11C410.4 421.64 418.266 411.499 417.365 405.408C416.476 399.318 411.308 376.835 408.742 369.184C406.186 361.532 407.038 353.498 411.808 350.206C414.169 348.577 420.467 343.948 431.683 343.969C442.899 343.991 454.393 347.537 454.71 348.001Z" fill="#FF9F43"/>
<path id="Path_147" fill-rule="evenodd" clip-rule="evenodd" d="M463.858 373.966L444.303 359.916L444.309 362.483C444.381 378.33 445.379 386.725 461.976 412.695L461.592 410.048C461.051 406.206 460.632 402.608 460.658 400.176C460.717 395.361 462.992 390.241 464.554 385.793L463.858 373.966Z" fill="black" fill-opacity="0.159856"/>
<path id="Path 68" fill-rule="evenodd" clip-rule="evenodd" d="M442.046 343.532C442.046 343.532 442.518 346.106 440.452 346.106C438.385 346.106 424.525 346.562 422.648 345.748C420.772 344.934 421.335 343.532 421.335 343.532H442.046Z" fill="#FFF6E1"/>
</g>
<g id="LArm_5">
<path id="Path_148" fill-rule="evenodd" clip-rule="evenodd" d="M511.125 378.861C511.125 378.861 522.411 371.328 524.406 369.816C526.394 368.309 528.889 356.886 527.343 355.283C526.596 354.507 520.949 359.725 519.942 360.424C518.942 361.117 513.821 364.2 513.821 364.2C513.821 364.2 515.27 355.456 514.023 354.751C513.1 354.238 511.255 356.488 511.008 358.866C510.761 361.245 508.195 364.347 507.863 367.957C507.714 369.534 507.13 371.577 507.13 371.577L475.814 385.025L479.091 399.648L511.125 378.861Z" fill="url(#paint25_linear_674_15288)"/>
<path id="Path_149" fill-rule="evenodd" clip-rule="evenodd" d="M443.908 364.416C448.232 373.4 455.578 386.534 459.612 394.236C464.386 403.349 470.075 407.21 481.549 400.448C482.892 399.656 485.797 397.892 485.797 397.892L478.693 382.12L474.965 383.768C474.965 383.768 463.976 363.702 459.414 354.068C453.61 341.823 435.538 347.03 443.908 364.416Z" fill="#FFB66F"/>
<path id="Path_150" fill-rule="evenodd" clip-rule="evenodd" d="M474.964 383.768C474.964 383.768 476.973 390.842 477.448 390.563C477.922 390.283 477.115 382.753 477.115 382.753L474.964 383.768Z" fill="black" fill-opacity="0.159856"/>
<path id="Path 75" fill-rule="evenodd" clip-rule="evenodd" d="M478.592 381.424L483.54 401.058L490.901 397.078L481.241 379.895L478.592 381.424Z" fill="#FFEDC2"/>
</g>
<path id="Path_151" fill-rule="evenodd" clip-rule="evenodd" d="M431.339 298.15C431.339 298.15 427.191 292.84 422.401 294.233C417.61 295.626 413.277 304.165 415.334 312.191C417.381 320.219 415.693 324.797 413.21 330.207C406.538 344.76 429.636 354 429.636 354C429.636 354 427.834 343.217 431.339 336.705C434.95 329.999 437 321.399 437 316.137C437 306.986 431.339 298.15 431.339 298.15Z" fill="#9E5229"/>
</g>
<g id="Chair8_2">
<path id="Path_152" fill-rule="evenodd" clip-rule="evenodd" d="M430.658 461.22L442.101 542.179L436.101 542.099L424.658 462.067L430.658 461.22Z" fill="#91D6FF"/>
<path id="Path_153" fill-rule="evenodd" clip-rule="evenodd" d="M463.956 461.22L475.399 542.179L469.4 542.099L457.957 462.067L463.956 461.22Z" fill="#91D6FF"/>
<path id="Path_154" fill-rule="evenodd" clip-rule="evenodd" d="M390.91 461.22L379.467 542.179L385.466 542.099L396.909 462.067L390.91 461.22Z" fill="#BFE7FF"/>
<path id="Path_155" fill-rule="evenodd" clip-rule="evenodd" d="M468.333 465.983C473.55 465.983 477.778 461.754 477.778 456.537C477.778 451.321 473.55 447.092 468.333 447.092H430.571C424.849 447.092 420.067 442.739 419.531 437.043L413.494 372.849C412.958 367.153 408.176 362.8 402.454 362.8H378.754C372.296 362.8 367.204 368.298 367.699 374.737L373.923 455.744C374.367 461.521 379.184 465.983 384.979 465.983H468.333Z" fill="#BFE7FF"/>
<path id="Combined Shape_7" fill-rule="evenodd" clip-rule="evenodd" d="M477.777 456.457C477.725 456.458 477.673 456.458 477.62 456.458H425.637C419.844 456.458 415.027 451.998 414.582 446.222L408.275 364.363C411.219 366.121 413.293 369.21 413.636 372.846L419.669 436.806C420.206 442.501 424.987 446.853 430.708 446.853H468.358C473.561 446.853 477.778 451.07 477.778 456.273C477.778 456.335 477.778 456.396 477.777 456.457Z" fill="#91D6FF"/>
</g>
</g>
</g>
<defs>
<filter id="filter0_dd_674_15288" x="69.8564" y="83.0083" width="191.802" height="107.428" filterUnits="userSpaceOnUse" color-interpolation-filters="sRGB">
<feFlood flood-opacity="0" result="BackgroundImageFix"/>
<feColorMatrix in="SourceAlpha" type="matrix" values="0 0 0 0 0 0 0 0 0 0 0 0 0 0 0 0 0 0 127 0" result="hardAlpha"/>
<feOffset dx="8" dy="9"/>
<feGaussianBlur stdDeviation="14"/>
<feColorMatrix type="matrix" values="0 0 0 0 0.0755213 0 0 0 0 0.582569 0 0 0 0 0.878793 0 0 0 0.229458 0"/>
<feBlend mode="normal" in2="BackgroundImageFix" result="effect1_dropShadow_674_15288"/>
<feColorMatrix in="SourceAlpha" type="matrix" values="0 0 0 0 0 0 0 0 0 0 0 0 0 0 0 0 0 0 127 0" result="hardAlpha"/>
<feOffset dy="2"/>
<feGaussianBlur stdDeviation="7.5"/>
<feColorMatrix type="matrix" values="0 0 0 0 0.503982 0 0 0 0 0.700178 0 0 0 0 1 0 0 0 0.233829 0"/>
<feBlend mode="normal" in2="effect1_dropShadow_674_15288" result="effect2_dropShadow_674_15288"/>
<feBlend mode="normal" in="SourceGraphic" in2="effect2_dropShadow_674_15288" result="shape"/>
</filter>
<filter id="filter1_dd_674_15288" x="69.8564" y="141.592" width="224.949" height="198.68" filterUnits="userSpaceOnUse" color-interpolation-filters="sRGB">
<feFlood flood-opacity="0" result="BackgroundImageFix"/>
<feColorMatrix in="SourceAlpha" type="matrix" values="0 0 0 0 0 0 0 0 0 0 0 0 0 0 0 0 0 0 127 0" result="hardAlpha"/>
<feOffset dx="8" dy="9"/>
<feGaussianBlur stdDeviation="14"/>
<feColorMatrix type="matrix" values="0 0 0 0 0.0755213 0 0 0 0 0.582569 0 0 0 0 0.878793 0 0 0 0.229458 0"/>
<feBlend mode="normal" in2="BackgroundImageFix" result="effect1_dropShadow_674_15288"/>
<feColorMatrix in="SourceAlpha" type="matrix" values="0 0 0 0 0 0 0 0 0 0 0 0 0 0 0 0 0 0 127 0" result="hardAlpha"/>
<feOffset dy="2"/>
<feGaussianBlur stdDeviation="7.5"/>
<feColorMatrix type="matrix" values="0 0 0 0 0.503982 0 0 0 0 0.700178 0 0 0 0 1 0 0 0 0.233829 0"/>
<feBlend mode="normal" in2="effect1_dropShadow_674_15288" result="effect2_dropShadow_674_15288"/>
<feBlend mode="normal" in="SourceGraphic" in2="effect2_dropShadow_674_15288" result="shape"/>
</filter>
<filter id="filter2_d_674_15288" x="95.5059" y="202.89" width="161.425" height="97.3125" filterUnits="userSpaceOnUse" color-interpolation-filters="sRGB">
<feFlood flood-opacity="0" result="BackgroundImageFix"/>
<feColorMatrix in="SourceAlpha" type="matrix" values="0 0 0 0 0 0 0 0 0 0 0 0 0 0 0 0 0 0 127 0" result="hardAlpha"/>
<feOffset dy="13"/>
<feGaussianBlur stdDeviation="7.5"/>
<feColorMatrix type="matrix" values="0 0 0 0 0 0 0 0 0 0 0 0 0 0 0 0 0 0 0.144395 0"/>
<feBlend mode="normal" in2="BackgroundImageFix" result="effect1_dropShadow_674_15288"/>
<feBlend mode="normal" in="SourceGraphic" in2="effect1_dropShadow_674_15288" result="shape"/>
</filter>
<filter id="filter3_d_674_15288" x="275.233" y="105.237" width="272.182" height="197.485" filterUnits="userSpaceOnUse" color-interpolation-filters="sRGB">
<feFlood flood-opacity="0" result="BackgroundImageFix"/>
<feColorMatrix in="SourceAlpha" type="matrix" values="0 0 0 0 0 0 0 0 0 0 0 0 0 0 0 0 0 0 127 0" result="hardAlpha"/>
<feOffset dx="6" dy="6"/>
<feGaussianBlur stdDeviation="8"/>
<feColorMatrix type="matrix" values="0 0 0 0 0.70188 0 0 0 0 0.70188 0 0 0 0 0.70188 0 0 0 0.208725 0"/>
<feBlend mode="normal" in2="BackgroundImageFix" result="effect1_dropShadow_674_15288"/>
<feBlend mode="normal" in="SourceGraphic" in2="effect1_dropShadow_674_15288" result="shape"/>
</filter>
<linearGradient id="paint0_linear_674_15288" x1="553.834" y1="311.939" x2="542.754" y2="361.416" gradientUnits="userSpaceOnUse">
<stop stop-color="#FFAFAF"/>
<stop offset="1" stop-color="#F07777"/>
</linearGradient>
<linearGradient id="paint1_linear_674_15288" x1="552.972" y1="302.545" x2="546.324" y2="335.064" gradientUnits="userSpaceOnUse">
<stop stop-color="#FDC6C6"/>
<stop offset="1" stop-color="#FAB2B2"/>
</linearGradient>
<linearGradient id="paint2_linear_674_15288" x1="505.963" y1="505.352" x2="504.37" y2="535.132" gradientUnits="userSpaceOnUse">
<stop stop-color="#FDC6C6"/>
<stop offset="1" stop-color="#FAB2B2"/>
</linearGradient>
<linearGradient id="paint3_linear_674_15288" x1="474.892" y1="543.704" x2="426.817" y2="451.426" gradientUnits="userSpaceOnUse">
<stop stop-color="#28324F"/>
<stop offset="1" stop-color="#222735"/>
</linearGradient>
<linearGradient id="paint4_linear_674_15288" x1="469.771" y1="340.915" x2="467.619" y2="369.518" gradientUnits="userSpaceOnUse">
<stop stop-color="#FDC6C6"/>
<stop offset="1" stop-color="#FAB2B2"/>
</linearGradient>
<linearGradient id="paint5_linear_674_15288" x1="548.733" y1="370.46" x2="548.102" y2="388.93" gradientUnits="userSpaceOnUse">
<stop stop-color="#FDC6C6"/>
<stop offset="1" stop-color="#FAB2B2"/>
</linearGradient>
<linearGradient id="paint6_linear_674_15288" x1="241.336" y1="202.269" x2="231.447" y2="203.194" gradientUnits="userSpaceOnUse">
<stop stop-color="#4D63A0"/>
<stop offset="1" stop-color="#222735"/>
</linearGradient>
<linearGradient id="paint7_linear_674_15288" x1="126.012" y1="401.433" x2="126.012" y2="417.998" gradientUnits="userSpaceOnUse">
<stop stop-color="#FE62BE"/>
<stop offset="1" stop-color="#FDB3A8"/>
</linearGradient>
<linearGradient id="paint8_linear_674_15288" x1="102.29" y1="388.795" x2="104.021" y2="405.269" gradientUnits="userSpaceOnUse">
<stop stop-color="#FE62BE"/>
<stop offset="1" stop-color="#FDB3A8"/>
</linearGradient>
<linearGradient id="paint9_linear_674_15288" x1="663.727" y1="503.858" x2="662.131" y2="533.708" gradientUnits="userSpaceOnUse">
<stop stop-color="#FDC6C6"/>
<stop offset="1" stop-color="#FAB2B2"/>
</linearGradient>
<linearGradient id="paint10_linear_674_15288" x1="659.095" y1="331.529" x2="654.855" y2="392.079" gradientUnits="userSpaceOnUse">
<stop stop-color="#FDC6C6"/>
<stop offset="1" stop-color="#FAB2B2"/>
</linearGradient>
<linearGradient id="paint11_linear_674_15288" x1="713.442" y1="307.528" x2="702.217" y2="357.064" gradientUnits="userSpaceOnUse">
<stop stop-color="#FFAFAF"/>
<stop offset="1" stop-color="#F07777"/>
</linearGradient>
<linearGradient id="paint12_linear_674_15288" x1="712.685" y1="298.112" x2="706.025" y2="330.709" gradientUnits="userSpaceOnUse">
<stop stop-color="#FDC6C6"/>
<stop offset="1" stop-color="#FAB2B2"/>
</linearGradient>
<linearGradient id="paint13_linear_674_15288" x1="628.45" y1="505.061" x2="626.889" y2="538.334" gradientUnits="userSpaceOnUse">
<stop stop-color="#FDC6C6"/>
<stop offset="1" stop-color="#FAB2B2"/>
</linearGradient>
<linearGradient id="paint14_linear_674_15288" x1="738.379" y1="364.401" x2="736.872" y2="403.785" gradientUnits="userSpaceOnUse">
<stop stop-color="#FDC6C6"/>
<stop offset="1" stop-color="#FAB2B2"/>
</linearGradient>
<linearGradient id="paint15_linear_674_15288" x1="585.222" y1="334.275" x2="597.146" y2="382.102" gradientUnits="userSpaceOnUse">
<stop stop-color="#9FF6EC"/>
<stop offset="1" stop-color="#7D9DFF"/>
</linearGradient>
<linearGradient id="paint16_linear_674_15288" x1="290.949" y1="390.304" x2="302.7" y2="416.424" gradientUnits="userSpaceOnUse">
<stop stop-color="#FDC6C6"/>
<stop offset="1" stop-color="#A47070"/>
</linearGradient>
<linearGradient id="paint17_linear_674_15288" x1="321.018" y1="291.839" x2="317.542" y2="338.74" gradientUnits="userSpaceOnUse">
<stop stop-color="#FDC6C6"/>
<stop offset="1" stop-color="#A47070"/>
</linearGradient>
<linearGradient id="paint18_linear_674_15288" x1="406.319" y1="343.096" x2="403.969" y2="375.735" gradientUnits="userSpaceOnUse">
<stop stop-color="#FDC6C6"/>
<stop offset="1" stop-color="#A47070"/>
</linearGradient>
<linearGradient id="paint19_linear_674_15288" x1="551.737" y1="393.207" x2="551.737" y2="396.386" gradientUnits="userSpaceOnUse">
<stop stop-color="#9FF6EC"/>
<stop offset="1" stop-color="#7D9DFF"/>
</linearGradient>
<linearGradient id="paint20_linear_674_15288" x1="558.03" y1="345.282" x2="558.03" y2="393.909" gradientUnits="userSpaceOnUse">
<stop stop-color="#9FF6EC"/>
<stop offset="1" stop-color="#7D9DFF"/>
</linearGradient>
<linearGradient id="paint21_linear_674_15288" x1="421.209" y1="368.874" x2="441.754" y2="415.819" gradientUnits="userSpaceOnUse">
<stop stop-color="#FDC6C6"/>
<stop offset="1" stop-color="#FFCCA1"/>
</linearGradient>
<linearGradient id="paint22_linear_674_15288" x1="459.365" y1="496.881" x2="456.668" y2="525.059" gradientUnits="userSpaceOnUse">
<stop stop-color="#FDC6C6"/>
<stop offset="1" stop-color="#FAB2B2"/>
</linearGradient>
<linearGradient id="paint23_linear_674_15288" x1="525.041" y1="496.123" x2="522.809" y2="522.105" gradientUnits="userSpaceOnUse">
<stop stop-color="#FDC6C6"/>
<stop offset="1" stop-color="#FAB2B2"/>
</linearGradient>
<linearGradient id="paint24_linear_674_15288" x1="458.154" y1="302.686" x2="455.056" y2="344.483" gradientUnits="userSpaceOnUse">
<stop stop-color="#FDC6C6"/>
<stop offset="1" stop-color="#FFCCA1"/>
</linearGradient>
<linearGradient id="paint25_linear_674_15288" x1="536.825" y1="343.73" x2="533.833" y2="397.408" gradientUnits="userSpaceOnUse">
<stop stop-color="#FDC6C6"/>
<stop offset="1" stop-color="#FFCCA1"/>
</linearGradient>
</defs>
</svg>
