<svg width="637" height="572" viewBox="0 0 637 572" fill="none" xmlns="http://www.w3.org/2000/svg">
<g id="Illustration">
<g id="Shape">
<g id="Oval" opacity="0.1" filter="url(#filter0_f_765_14846)">
<ellipse cx="121.531" cy="275.607" rx="115.531" ry="116.393" fill="#7367F0"/>
</g>
<path id="Oval_2" opacity="0.05" fill-rule="evenodd" clip-rule="evenodd" d="M380.75 177.185C380.75 116.434 429.999 67.1851 490.75 67.1851C551.501 67.1851 600.75 116.434 600.75 177.185C600.75 237.936 551.501 287.185 490.75 287.185C429.999 287.185 380.75 237.936 380.75 177.185ZM553.75 176.685C553.75 142.167 525.768 114.185 491.25 114.185C456.732 114.185 428.75 142.167 428.75 176.685C428.75 211.203 456.732 239.185 491.25 239.185C525.768 239.185 553.75 211.203 553.75 176.685Z" fill="#00CFE8"/>
<ellipse id="Oval_3" opacity="0.1" cx="312.383" cy="53.0407" rx="37.9439" ry="38.0407" stroke="#7367F0" stroke-width="30"/>
<path id="Path" opacity="0.1" d="M491.165 67.1851C551.687 67.1851 600.75 116.434 600.75 177.185C600.75 237.936 551.687 287.185 491.165 287.185C454.704 287.185 421.237 269.152 400.923 239.605C393.53 228.852 396.221 214.12 406.933 206.699C417.538 199.353 432.029 201.927 439.491 212.412L439.715 212.732C451.321 229.614 470.362 239.873 491.165 239.873C525.656 239.873 553.617 211.807 553.617 177.185C553.617 142.91 526.213 115.059 492.198 114.505L491.165 114.497C478.15 114.497 467.598 103.906 467.598 90.841C467.598 77.7762 478.15 67.1851 491.165 67.1851Z" fill="#00CFE8"/>
</g>
<g id="Mobile Banking App">
<g id="Phone3">
<path id="Rectangle" fill-rule="evenodd" clip-rule="evenodd" d="M168.975 178.137C168.975 164.254 180.229 153 194.112 153H345.201C359.084 153 370.338 164.254 370.338 178.137V545.323C370.338 559.206 359.084 570.46 345.201 570.46H194.112C180.229 570.46 168.975 559.206 168.975 545.323V178.137Z" fill="#8EE9F4"/>
<g id="Group 48">
<path id="Rectangle_2" fill-rule="evenodd" clip-rule="evenodd" d="M176.236 179.935C176.236 169.705 184.529 161.413 194.758 161.413H221.438C222.186 161.413 222.798 162.008 222.82 162.755C222.975 168.115 227.364 172.379 232.726 172.379H305.925C311.287 172.379 315.677 168.115 315.832 162.755C315.853 162.008 316.466 161.413 317.214 161.413H343.893C354.123 161.413 362.415 169.705 362.415 179.935V541.033C362.415 551.263 354.123 559.555 343.893 559.555H194.758C184.529 559.555 176.236 551.263 176.236 541.033V179.935Z" fill="white"/>
<mask id="mask0_765_14846" style="mask-type:alpha" maskUnits="userSpaceOnUse" x="176" y="161" width="187" height="399">
<path id="Rectangle_3" fill-rule="evenodd" clip-rule="evenodd" d="M176.236 179.935C176.236 169.705 184.529 161.413 194.758 161.413H221.438C222.186 161.413 222.798 162.008 222.82 162.755C222.975 168.115 227.364 172.379 232.726 172.379H305.925C311.287 172.379 315.677 168.115 315.832 162.755C315.853 162.008 316.466 161.413 317.214 161.413H343.893C354.123 161.413 362.415 169.705 362.415 179.935V541.033C362.415 551.263 354.123 559.555 343.893 559.555H194.758C184.529 559.555 176.236 551.263 176.236 541.033V179.935Z" fill="white"/>
</mask>
<g mask="url(#mask0_765_14846)">
<ellipse id="Oval_4" cx="246.822" cy="403.738" rx="15.9688" ry="15.9515" fill="#E97EFF" fill-opacity="0.548951"/>
<path id="Rectangle_4" fill-rule="evenodd" clip-rule="evenodd" d="M198.916 235.001C198.916 232.11 201.259 229.767 204.15 229.767H335.904C338.794 229.767 341.138 232.11 341.138 235.001C341.138 237.891 338.794 240.235 335.904 240.235H204.15C201.259 240.235 198.916 237.891 198.916 235.001Z" fill="#E97EFF" fill-opacity="0.548951"/>
</g>
</g>
<path id="Path_2" d="M280.572 160.309C282.294 160.309 283.69 161.648 283.69 163.299C283.69 164.915 282.355 166.231 280.686 166.288L280.572 166.29H245.304C243.582 166.29 242.186 164.951 242.186 163.299C242.186 161.684 243.521 160.368 245.19 160.311L245.304 160.309H280.572Z" fill="#00CFE8"/>
<path id="Path_3" d="M293.21 159.81C294.933 159.81 296.329 161.205 296.329 162.926C296.329 164.608 294.994 165.979 293.325 166.039L293.21 166.041H293.047C291.324 166.041 289.928 164.646 289.928 162.926C289.928 161.243 291.263 159.872 292.932 159.812L293.047 159.81H293.21Z" fill="#00CFE8"/>
</g>
<g id="BoardPieChart">
<g id="Rectangle_5" filter="url(#filter1_dd_765_14846)">
<path fill-rule="evenodd" clip-rule="evenodd" d="M188.229 359.27C188.229 354.434 192.149 350.514 196.985 350.514H388.174C393.01 350.514 396.93 354.434 396.93 359.27V478.525C396.93 483.361 393.01 487.281 388.174 487.281H196.985C192.149 487.281 188.229 483.361 188.229 478.525V359.27Z" fill="white"/>
</g>
<mask id="mask1_765_14846" style="mask-type:alpha" maskUnits="userSpaceOnUse" x="188" y="350" width="209" height="138">
<path id="Rectangle_6" fill-rule="evenodd" clip-rule="evenodd" d="M188.229 359.27C188.229 354.434 192.149 350.514 196.985 350.514H388.174C393.01 350.514 396.93 354.434 396.93 359.27V478.525C396.93 483.361 393.01 487.281 388.174 487.281H196.985C192.149 487.281 188.229 483.361 188.229 478.525V359.27Z" fill="white"/>
</mask>
<g mask="url(#mask1_765_14846)">
<path id="Rectangle_7" fill-rule="evenodd" clip-rule="evenodd" d="M183.547 345.15H402.282V385.376H183.547L183.547 345.15Z" fill="#A8EDF6"/>
<path id="Rectangle_8" opacity="0.365606" fill-rule="evenodd" clip-rule="evenodd" d="M205.621 374.649C205.621 373.538 206.522 372.638 207.632 372.638H274.515C275.626 372.638 276.526 373.538 276.526 374.649C276.526 375.76 275.626 376.66 274.515 376.66H207.632C206.522 376.66 205.621 375.76 205.621 374.649Z" fill="#6FA3FF"/>
<rect id="Rectangle_9" x="205.621" y="361.241" width="37.4593" height="4.02258" rx="2.01129" fill="white"/>
<rect id="Rectangle_10" x="212.309" y="452.419" width="37.4593" height="4.69301" rx="2.3465" fill="#EA5455"/>
<path id="Rectangle_11" fill-rule="evenodd" clip-rule="evenodd" d="M212.309 468.174C212.309 466.878 213.359 465.828 214.655 465.828H234.043C235.339 465.828 236.39 466.878 236.39 468.174C236.39 469.47 235.339 470.521 234.043 470.521H214.655C213.359 470.521 212.309 469.47 212.309 468.174Z" fill="#F8F9FA"/>
<rect id="Rectangle_12" x="271.844" y="452.419" width="37.4593" height="4.69301" rx="2.3465" fill="#FF9F43"/>
<path id="Rectangle_13" fill-rule="evenodd" clip-rule="evenodd" d="M271.844 468.174C271.844 466.878 272.894 465.828 274.19 465.828H293.578C294.874 465.828 295.925 466.878 295.925 468.174C295.925 469.47 294.874 470.521 293.578 470.521H274.19C272.894 470.521 271.844 469.47 271.844 468.174Z" fill="#F8F9FA"/>
<rect id="Rectangle_14" x="333.383" y="452.419" width="37.4593" height="4.69301" rx="2.3465" fill="#28C76F"/>
<path id="Rectangle_15" fill-rule="evenodd" clip-rule="evenodd" d="M333.383 468.174C333.383 466.878 334.433 465.828 335.729 465.828H355.117C356.413 465.828 357.464 466.878 357.464 468.174C357.464 469.47 356.413 470.521 355.117 470.521H335.729C334.433 470.521 333.383 469.47 333.383 468.174Z" fill="#F8F9FA"/>
<g id="Group 3">
<path id="Oval_5" fill-rule="evenodd" clip-rule="evenodd" d="M352.112 438.843C362.733 438.843 371.344 430.213 371.344 419.568C371.344 408.923 362.733 400.293 352.112 400.293C341.491 400.293 332.881 408.923 332.881 419.568C332.881 430.213 341.491 438.843 352.112 438.843ZM352.112 431.133C345.739 431.133 340.573 425.955 340.573 419.568C340.573 413.181 345.739 408.003 352.112 408.003C358.485 408.003 363.651 413.181 363.651 419.568C363.651 425.955 358.485 431.133 352.112 431.133Z" fill="#F2F2F2"/>
<path id="Path_4" fill-rule="evenodd" clip-rule="evenodd" d="M371.343 419.568C371.343 408.923 362.733 400.293 352.112 400.293C349.988 400.293 348.266 402.019 348.266 404.148C348.266 406.277 349.988 408.003 352.112 408.003C358.412 408.003 363.533 413.064 363.649 419.351L363.651 419.568C363.651 421.697 365.373 423.423 367.497 423.423C369.621 423.423 371.343 421.697 371.343 419.568Z" fill="#28C76F"/>
</g>
<g id="Group 4">
<path id="Oval_6" fill-rule="evenodd" clip-rule="evenodd" d="M291.911 438.843C302.532 438.843 311.142 430.213 311.142 419.568C311.142 408.923 302.532 400.293 291.911 400.293C281.29 400.293 272.68 408.923 272.68 419.568C272.68 430.213 281.29 438.843 291.911 438.843ZM291.911 431.133C285.538 431.133 280.372 425.955 280.372 419.568C280.372 413.181 285.538 408.003 291.911 408.003C298.284 408.003 303.45 413.181 303.45 419.568C303.45 425.955 298.284 431.133 291.911 431.133Z" fill="#F2F2F2"/>
<path id="Path_5" d="M291.911 438.843C302.532 438.843 311.142 430.213 311.142 419.568C311.142 408.923 302.532 400.293 291.911 400.293C289.786 400.293 288.064 402.019 288.064 404.148C288.064 406.277 289.786 408.003 291.911 408.003C298.283 408.003 303.45 413.181 303.45 419.568C303.45 425.882 298.4 431.015 292.127 431.131L291.911 431.133C289.786 431.133 288.064 432.859 288.064 434.988C288.064 437.117 289.786 438.843 291.911 438.843Z" fill="#FF9F43"/>
</g>
<g id="Group 6">
<path id="Oval_7" fill-rule="evenodd" clip-rule="evenodd" d="M231.708 438.843C242.329 438.843 250.939 430.213 250.939 419.568C250.939 408.923 242.329 400.293 231.708 400.293C221.087 400.293 212.477 408.923 212.477 419.568C212.477 430.213 221.087 438.843 231.708 438.843ZM231.708 431.133C225.335 431.133 220.169 425.955 220.169 419.568C220.169 413.181 225.335 408.003 231.708 408.003C238.081 408.003 243.247 413.181 243.247 419.568C243.247 425.955 238.081 431.133 231.708 431.133Z" fill="#F2F2F2"/>
<path id="Path_6" fill-rule="evenodd" clip-rule="evenodd" d="M212.477 419.568C212.477 430.213 221.087 438.843 231.708 438.843C242.329 438.843 250.939 430.213 250.939 419.568C250.939 408.923 242.329 400.293 231.708 400.293C229.584 400.293 227.862 402.019 227.862 404.148C227.862 406.277 229.584 408.003 231.708 408.003C238.081 408.003 243.247 413.181 243.247 419.568C243.247 425.955 238.081 431.133 231.708 431.133C225.335 431.133 220.169 425.955 220.169 419.568C220.169 417.439 218.447 415.713 216.323 415.713C214.199 415.713 212.477 417.439 212.477 419.568Z" fill="#EA5455"/>
</g>
</g>
</g>
<g id="VisaCard2">
<g id="Rectangle_16" filter="url(#filter2_d_765_14846)">
<path fill-rule="evenodd" clip-rule="evenodd" d="M190.442 206.352H397.492C399.965 206.352 401.969 208.361 401.969 210.841V328.683C401.969 331.163 399.965 333.173 397.492 333.173H190.442C187.969 333.173 185.965 331.163 185.965 328.683V210.841C185.965 208.361 187.969 206.352 190.442 206.352Z" fill="#BFB9FF"/>
</g>
<g id="Group 46">
<g id="Group 45">
<g id="Group 43">
<ellipse id="Oval_8" cx="343.996" cy="239.358" rx="12.9826" ry="12.9349" fill="#8E83FF"/>
<ellipse id="Oval Copy 10" cx="361.903" cy="239.358" rx="12.9826" ry="12.9349" fill="#FFBB7A"/>
<path id="Path_7" fill-rule="evenodd" clip-rule="evenodd" d="M352.832 230.104L352.951 229.993C355.432 232.349 356.978 235.673 356.978 239.358C356.978 243.042 355.432 246.367 352.951 248.723C350.467 246.368 348.92 243.043 348.92 239.358C348.92 235.731 350.418 232.453 352.832 230.104L352.951 229.993L352.832 230.104Z" fill="white" fill-opacity="0.416193"/>
</g>
<path id="Rectangle_17" fill-rule="evenodd" clip-rule="evenodd" d="M217.974 247.609H245.059C246.048 247.609 246.849 248.408 246.849 249.393V269.019C246.849 270.004 246.048 270.803 245.059 270.803H217.974C216.985 270.803 216.184 270.004 216.184 269.019V249.393C216.184 248.408 216.985 247.609 217.974 247.609Z" fill="#9F95FF"/>
</g>
<g id="Group 44">
<path id="Rectangle_18" fill-rule="evenodd" clip-rule="evenodd" d="M220.213 283.961H242.597C244.822 283.961 246.626 285.758 246.626 287.975C246.626 290.192 244.822 291.989 242.597 291.989H220.213C217.987 291.989 216.184 290.192 216.184 287.975C216.184 285.758 217.987 283.961 220.213 283.961Z" fill="white" fill-opacity="0.646908"/>
<path id="Rectangle_19" fill-rule="evenodd" clip-rule="evenodd" d="M220.213 304.032H276.172C278.398 304.032 280.201 305.829 280.201 308.046C280.201 310.264 278.398 312.061 276.172 312.061H220.213C217.987 312.061 216.184 310.264 216.184 308.046C216.184 305.829 217.987 304.032 220.213 304.032Z" fill="white" fill-opacity="0.646908"/>
<path id="Rectangle_20" fill-rule="evenodd" clip-rule="evenodd" d="M347.801 304.032H370.184C372.41 304.032 374.214 305.829 374.214 308.046C374.214 310.264 372.41 312.061 370.184 312.061H347.801C345.575 312.061 343.771 310.264 343.771 308.046C343.771 305.829 345.575 304.032 347.801 304.032Z" fill="white" fill-opacity="0.646908"/>
<path id="Rectangle_21" fill-rule="evenodd" clip-rule="evenodd" d="M220.213 225.977H242.597C244.822 225.977 246.626 227.774 246.626 229.991C246.626 232.208 244.822 234.006 242.597 234.006H220.213C217.987 234.006 216.184 232.208 216.184 229.991C216.184 227.774 217.987 225.977 220.213 225.977Z" fill="white" fill-opacity="0.646908"/>
<path id="Rectangle Copy 38" fill-rule="evenodd" clip-rule="evenodd" d="M262.295 283.961H284.679C286.904 283.961 288.708 285.758 288.708 287.975C288.708 290.192 286.904 291.989 284.679 291.989H262.295C260.07 291.989 258.266 290.192 258.266 287.975C258.266 285.758 260.07 283.961 262.295 283.961Z" fill="white" fill-opacity="0.646908"/>
<path id="Rectangle Copy 39" fill-rule="evenodd" clip-rule="evenodd" d="M305.271 283.961H327.655C329.88 283.961 331.684 285.758 331.684 287.975C331.684 290.192 329.88 291.989 327.655 291.989H305.271C303.046 291.989 301.242 290.192 301.242 287.975C301.242 285.758 303.046 283.961 305.271 283.961Z" fill="white" fill-opacity="0.646908"/>
<path id="Rectangle Copy 40" fill-rule="evenodd" clip-rule="evenodd" d="M347.353 283.961H369.737C371.962 283.961 373.766 285.758 373.766 287.975C373.766 290.192 371.962 291.989 369.737 291.989H347.353C345.128 291.989 343.324 290.192 343.324 287.975C343.324 285.758 345.128 283.961 347.353 283.961Z" fill="white" fill-opacity="0.646908"/>
</g>
</g>
</g>
<g id="Men1.1">
<g id="LLeg">
<path id="Path_8" fill-rule="evenodd" clip-rule="evenodd" d="M142.482 541.999C142.482 541.999 142.328 551.856 148.381 555.357C154.434 558.859 163.812 565.365 163.812 565.365L128.137 566.573L129.154 541.911L142.482 541.999Z" fill="url(#paint0_linear_765_14846)"/>
<path id="Path_9" fill-rule="evenodd" clip-rule="evenodd" d="M127.76 553.935C130.518 554.22 129.915 558.21 134.921 558.016C138.568 557.874 144.256 551.147 148.936 553.639C156.077 557.442 164.452 562.57 166.505 563.791C168.559 565.012 169.37 569.618 163.302 570.183C157.5 570.724 149.667 570.664 147.706 570.306C145.743 569.948 142.104 567.446 139.176 567.846C136.248 568.246 135.915 569.256 134.278 569.703C132.642 570.15 127.703 570.247 127.191 568.868C126.603 567.285 126.013 553.756 127.76 553.935Z" fill="#482B61"/>
<path id="Path_10" fill-rule="evenodd" clip-rule="evenodd" d="M124.995 332.889C124.995 332.889 138.604 439.704 139.742 449.806C140.879 459.908 147.127 531.77 146.272 541.356C145.401 551.118 127.139 551.17 124.689 543.805C121.336 533.724 113.584 483.34 112.302 472.819C111.02 462.297 111.47 450.082 106.318 439.309C102.629 431.596 90.4219 335.627 90.4219 335.627L124.995 332.889Z" fill="#2F2B57"/>
<path id="Path_11" opacity="0.59096" fill-rule="evenodd" clip-rule="evenodd" d="M116.996 456.323L117.044 456.804C117.564 462.384 117.999 480.865 118.35 512.249L117.567 507.561C115.111 492.698 112.929 477.974 112.301 472.819C111.046 462.517 111.452 450.59 106.632 439.984L106.317 439.309C104.694 435.914 101.42 415.426 98.2637 393.547L99.2548 396.2C109.794 424.542 115.708 444.583 116.996 456.323Z" fill="white" fill-opacity="0.192499"/>
<path id="Path 10" d="M151.574 555.354L149.867 557.907" stroke="white" stroke-linecap="round"/>
<path id="Path 10_2" d="M154.554 556.352L152.848 558.905" stroke="white" stroke-linecap="round"/>
</g>
<g id="RLeg">
<path id="Path_12" fill-rule="evenodd" clip-rule="evenodd" d="M59.5873 544.261L56.3945 565.817L71.826 565.739L71.3208 543.86L59.5873 544.261Z" fill="url(#paint1_linear_765_14846)"/>
<path id="Path_13" fill-rule="evenodd" clip-rule="evenodd" d="M53.5505 569.304C53.4989 568.047 54.6698 559.89 56.3937 556.66C57.6441 554.317 60.4167 553.768 64.4739 553.752C69.7071 553.731 74.0807 554.523 74.0746 556.66C74.0562 563.198 75.7144 568.227 75.8258 568.802C76.153 570.488 71.4725 571.746 65.0796 571.682C59.847 571.63 53.6306 571.266 53.5505 569.304Z" fill="#482B61"/>
<path id="Path_14" fill-rule="evenodd" clip-rule="evenodd" d="M107.504 336.396C107.504 336.396 100.429 384.069 96.146 414.233C91.9374 443.873 79.4738 532.285 78.1859 541.54C77.0035 550.036 55.422 550.036 55.6491 539.746C55.8763 529.456 53.8783 465.335 57.8967 455.841C61.9152 446.347 58.4168 435.298 58.5628 426.076C58.7095 416.853 64.4886 337.012 64.4886 337.012L107.504 336.396Z" fill="#3A3669"/>
<path id="Path_15" opacity="0.461565" fill-rule="evenodd" clip-rule="evenodd" d="M68.7971 398.216L68.4593 399.443C64.3624 414.163 62.9485 415.489 64.1096 438.966L64.1215 439.444C64.1619 445.35 61.3528 475.916 55.6941 531.142L55.6685 527.709C55.4701 505.179 54.64 464.445 57.7945 456.096L57.8965 455.841C61.915 446.347 58.4167 435.298 58.5627 426.075C58.7093 416.853 64.4885 337.012 64.4885 337.012L71.8706 336.905L71.9461 340.563C72.4772 369.125 71.4275 388.343 68.7971 398.216Z" fill="white" fill-opacity="0.192499"/>
<path id="Path 9" d="M62.6035 558.533H68.2523" stroke="white" stroke-linecap="round"/>
<path id="Path 9_2" d="M62.6035 561.528H68.2523" stroke="white" stroke-linecap="round"/>
</g>
<g id="Head">
<path id="Path_16" fill-rule="evenodd" clip-rule="evenodd" d="M81.0352 240.078C81.0352 240.078 86.9462 238.683 87.1513 228.948C87.3563 219.214 87.2124 215.891 87.2124 215.891L101.226 215.655C101.226 215.655 101.368 226.504 101.37 230.428C101.375 240.968 108.682 240.078 108.682 240.078C108.682 240.078 107.163 248.624 95.3654 249.29C86.1538 249.812 81.0352 240.078 81.0352 240.078Z" fill="url(#paint2_linear_765_14846)"/>
<g id="Head1">
<path id="Path_17" fill-rule="evenodd" clip-rule="evenodd" d="M85.9269 210.97C80.1186 210.744 81.066 219.29 87.0998 219.279C87.0998 219.279 93.5843 232.383 103.765 232.417C108.669 232.433 110.27 228.043 111.74 224.961C113.21 221.879 114.289 217.269 114.379 214.447C114.475 211.437 114.487 201.55 114.487 201.55L85.7008 201.537L85.9269 210.97Z" fill="url(#paint3_linear_765_14846)"/>
<path id="Path_18" d="M103.357 226.173C104.228 226.653 105.264 226.535 106.066 226.173" stroke="#F49494" stroke-linecap="round"/>
<path id="Path 8" d="M86.8314 215.849C86.8912 214.478 86.4751 213.39 85.084 213.171" stroke="#DE6767" stroke-linecap="round"/>
<path id="Path_19" fill-rule="evenodd" clip-rule="evenodd" d="M85.9261 210.97C85.9261 210.97 88.5967 214.069 89.5847 214.154C90.5734 214.239 89.4469 205.769 90.902 204.226C94.0982 200.834 102.45 206.597 111.233 205.189C114.486 204.668 114.428 210.228 114.428 210.228C122.638 202.703 125.615 196.767 115.804 194.288C115.726 187.92 112.081 186.321 105.032 189.276C104.09 180.673 91.912 181.971 86.3687 192.916C82.3564 188.992 76.7167 192.159 79.1101 198.064C74.7895 198.064 77.041 209.672 82.1327 213.66C82.7402 211.918 83.8504 210.97 85.9261 210.97Z" fill="#422851"/>
<path id="Path_20" d="M101.387 223.414C101.387 223.414 104.152 226.029 107.624 223.899" stroke="#DE6767" stroke-linecap="round"/>
</g>
</g>
<g id="LArm">
<g id="Group 3_2">
<path id="Path_21" fill-rule="evenodd" clip-rule="evenodd" d="M182.554 271.334C182.554 271.334 184.216 262.095 186.415 258.857C188.614 255.619 189.255 250.179 191.33 250.379C193.405 250.579 191.327 259.264 191.327 259.264C191.327 259.264 201.003 252.005 205.393 249.504C209.398 247.222 207.201 259.026 206.575 260.53C205.084 264.112 187.834 277.629 187.834 277.629C187.834 277.629 182.931 272.156 182.554 271.334Z" fill="url(#paint4_linear_765_14846)"/>
<path id="Path_22" fill-rule="evenodd" clip-rule="evenodd" d="M191.326 259.264C191.326 259.264 190.612 262.235 190.968 262.235C191.325 262.235 197.892 254.487 197.892 254.487L191.326 259.264Z" fill="#F28585"/>
</g>
<path id="Path_23" fill-rule="evenodd" clip-rule="evenodd" d="M126.694 250.655C131.425 260.915 149.121 287.426 149.121 287.426C149.121 287.426 178.119 268.52 181.809 268.481C185.499 268.442 190.509 273.338 190.194 276.717C189.879 280.096 158.129 309.732 147.946 309.483C132.113 309.095 112.258 267.922 110.219 262.419C104.759 247.678 122.079 240.647 126.694 250.655Z" fill="#FF5C5D"/>
<path id="Path 5" fill-rule="evenodd" clip-rule="evenodd" d="M149.016 287.407C149.016 287.407 152.364 292.312 152.964 291.99C153.564 291.668 151.648 285.994 151.648 285.994L149.016 287.407Z" fill="black" fill-opacity="0.159856"/>
</g>
<g id="Body">
<path id="Path_24" fill-rule="evenodd" clip-rule="evenodd" d="M56.6569 252.296C55.1712 259.42 65.3456 295.324 62.5464 312.121C60.3324 325.406 58.2189 343.697 63.9571 347.758C69.7991 351.893 120.087 355.176 127.255 343.697C132.941 334.591 128.286 314.395 127.255 305.183C125.198 286.803 128.304 255.042 124.814 248.546C122.65 244.516 107.892 239.319 107.338 239.48C106.783 239.641 105.48 245.351 96.1486 245.351C86.817 245.351 82.6963 239.48 82.1949 239.319C81.6935 239.158 58.0014 245.851 56.6569 252.296Z" fill="#EA5455"/>
<path id="Path_25" fill-rule="evenodd" clip-rule="evenodd" d="M82.1719 239.316L82.1954 239.319C82.6968 239.48 86.8175 245.351 96.1491 245.351C105.481 245.351 106.784 239.641 107.338 239.48C107.538 239.422 109.589 240.062 112.229 241.093L112.217 241.214C105.547 252.414 87.2046 253.795 77.3998 240.981L77.1777 240.684L78.2718 240.345C80.2744 239.736 81.7075 239.37 82.0972 239.321L82.1719 239.316Z" fill="#FF9B86"/>
<path id="Path_26" fill-rule="evenodd" clip-rule="evenodd" d="M56.6875 257.244L57.5097 257.358C66.2319 258.606 71.3474 260.58 72.8563 263.28C73.8462 265.052 73.3859 271.044 71.4753 281.257L71.2725 282.328C69.5005 291.586 71.5266 301.162 76.876 308.888L77.1766 309.315C78.9857 311.846 80.6535 315.179 82.1799 319.313C85.7206 328.903 78.1892 336.983 82.9592 351.249L81.9853 351.178C73.1187 350.499 65.9478 349.168 63.9561 347.758C58.218 343.697 60.3315 325.406 62.5455 312.121C64.9273 297.829 57.9163 269.703 56.6875 257.244Z" fill="black" fill-opacity="0.0667614"/>
</g>
<g id="Rarm">
<g id="Group 2">
<path id="Path_27" fill-rule="evenodd" clip-rule="evenodd" d="M66.8798 328.606C66.8798 328.606 70.2276 332.555 73.085 333.047C75.9423 333.538 87.9003 335.877 88.6301 336.223C89.32 336.551 91.679 337.793 93.6964 339.785C95.4442 341.512 98.4679 345.605 97.4541 346.31C96.3704 347.063 93.4445 343.371 91.9764 342.458C90.4371 341.501 88.0714 340.653 88.0714 340.653C88.0714 340.653 93.9232 347.713 93.5511 348.946C93.2795 349.846 88.3035 351.383 87.2395 351.268C86.1754 351.153 80.3122 346.86 77.6769 346.36C75.849 346.014 67.6655 343.797 65.9394 342.133C64.214 340.468 60.332 337.089 60.332 337.089L66.8798 328.606Z" fill="url(#paint5_linear_765_14846)"/>
<path id="Path_28" fill-rule="evenodd" clip-rule="evenodd" d="M92.4237 349.764C92.4237 349.764 86.2999 343.594 86.0444 343.699C85.7888 343.804 91.3804 350.194 91.3804 350.194L92.4237 349.764Z" fill="#F28585"/>
<path id="Path_29" fill-rule="evenodd" clip-rule="evenodd" d="M89.6934 350.777C89.6934 350.777 85.106 346.574 84.8062 346.777C84.5063 346.979 88.4804 351.12 88.4804 351.12L89.6934 350.777Z" fill="#F28585"/>
</g>
<path id="Path_30" fill-rule="evenodd" clip-rule="evenodd" d="M70.209 246.344C79.6645 252.997 73.3474 265.092 65.5027 276.186C58.1747 286.548 47.0679 302.157 47.0679 302.157C47.0679 302.157 67.9526 325.033 69.97 329.266C71.9873 333.499 66.8356 341.448 60.4311 339.277C54.0259 337.106 17.5776 310.107 24.9896 297.347C36.3106 277.859 59.0404 238.485 70.209 246.344Z" fill="#FF5C5D"/>
<path id="Path 6" fill-rule="evenodd" clip-rule="evenodd" d="M47.068 302.157C47.068 302.157 42.7822 297.623 43.1826 297.099C43.5831 296.574 48.4132 300.28 48.4132 300.28L47.068 302.157Z" fill="black" fill-opacity="0.159856"/>
</g>
</g>
<g id="Group 7">
<path id="Rectangle_22" fill-rule="evenodd" clip-rule="evenodd" d="M390.955 492.784C390.955 479.467 401.75 468.672 415.066 468.672L496.197 468.672V551.132C496.197 553.341 494.406 555.132 492.197 555.132H394.955C392.746 555.132 390.955 553.341 390.955 551.132L390.955 492.784Z" fill="#86E5F0"/>
<path id="Rectangle_23" fill-rule="evenodd" clip-rule="evenodd" d="M400.465 538.065L477.244 538.065V555.132H400.465V538.065Z" fill="#86E5F0"/>
<path id="Path_31" fill-rule="evenodd" clip-rule="evenodd" d="M498.244 554.514L503.087 566.644H479.674L483.731 554.514H498.244Z" fill="#86E5F0"/>
<path id="Path_32" fill-rule="evenodd" clip-rule="evenodd" d="M418.474 554.514L423.318 566.644H399.904L403.962 554.514H418.474Z" fill="#91D6FF"/>
<path id="Path_33" fill-rule="evenodd" clip-rule="evenodd" d="M577.017 554.514L581.861 566.644H558.447L562.505 554.514H577.017Z" fill="#86E5F0"/>
<path id="Rectangle_24" fill-rule="evenodd" clip-rule="evenodd" d="M450.795 403.493C450.795 390.38 461.274 379.671 474.383 379.387L496.795 378.901V476.828H450.795L450.795 403.493Z" fill="#91D6FF"/>
<path id="Rectangle_25" fill-rule="evenodd" clip-rule="evenodd" d="M459.77 403.012C459.77 389.696 470.565 378.901 483.881 378.901H560.112C572.174 378.901 581.952 388.679 581.952 400.741V477.077C581.952 478.042 581.169 478.824 580.205 478.824H459.77L459.77 403.012Z" fill="#C6F9FF"/>
<path id="Rectangle_26" fill-rule="evenodd" clip-rule="evenodd" d="M547.805 396.818C547.805 386.923 555.827 378.901 565.722 378.901C574.685 378.901 581.952 386.167 581.952 395.13V467.1C581.952 468.065 581.169 468.847 580.205 468.847H547.805V396.818Z" fill="#86E5F0"/>
<path id="Rectangle_27" fill-rule="evenodd" clip-rule="evenodd" d="M400.465 490.474C400.465 483.515 406.106 477.874 413.065 477.874H491.345V543.628H400.465V490.474Z" fill="#C6F9FF"/>
<g id="Wom1.4">
<g id="Head_2">
<path id="Path_34" fill-rule="evenodd" clip-rule="evenodd" d="M494.783 370.394C506.982 367.552 507.785 350.8 498.511 344.989C508.075 324.929 485.958 305.012 470.808 317.295C460.876 313.041 452.622 329.64 461.864 342.532C457.989 364.667 465.875 370.388 480.092 370.632L494.783 370.394Z" fill="#422851"/>
<path id="Path_35" fill-rule="evenodd" clip-rule="evenodd" d="M494.631 366.394C494.631 366.394 488.697 365 488.491 355.272C488.285 345.543 488.43 342.223 488.43 342.223L475.359 341.987C475.359 341.987 475.217 352.829 475.215 356.75C475.209 367.283 467.874 366.394 467.874 366.394C467.874 366.394 469.399 374.934 481.243 375.6C490.49 376.121 494.631 366.394 494.631 366.394Z" fill="url(#paint6_linear_765_14846)"/>
<path id="Path_36" fill-rule="evenodd" clip-rule="evenodd" d="M491.478 337.365C497.309 337.139 496.358 345.679 490.301 345.668C490.301 345.668 486.783 357.8 474.569 357.8C464.649 357.8 464.004 343.66 463.914 340.839C463.817 337.831 463.805 327.95 463.805 327.95L491.705 327.938L491.478 337.365Z" fill="url(#paint7_linear_765_14846)"/>
<path id="Path_37" d="M476.924 349.649C476.924 349.649 474.015 352.114 470.645 349.806" stroke="#F77B7B" stroke-width="1.5" stroke-linecap="round"/>
<path id="Path_38" d="M475.002 352.504C474.097 352.922 473.225 352.952 472.447 352.536" stroke="#F49494" stroke-linecap="round"/>
<path id="Path 8_2" d="M490.883 341.958C490.823 340.588 491.24 339.5 492.637 339.281" stroke="#F77B7B" stroke-linecap="round"/>
<path id="Path_39" fill-rule="evenodd" clip-rule="evenodd" d="M492.4 336.309C492.4 336.309 489.204 340.6 488.557 340.623C487.909 340.646 487.683 335.043 487.683 335.043C483.762 334.743 473.841 332.766 471.408 328.161C469.708 332.224 466.456 334.029 464.32 333.683L463.915 342.315L462.918 324.96H493.182L492.4 336.309Z" fill="#422851"/>
</g>
<g id="LLeg_2">
<path id="Path_40" fill-rule="evenodd" clip-rule="evenodd" d="M434.912 537.945C434.912 537.945 440.143 548.516 435.854 551.847C431.56 555.179 420.216 561.422 420.216 561.422L450.27 559.532L443.589 536.478L434.912 537.945Z" fill="url(#paint8_linear_765_14846)"/>
<path id="Path_41" fill-rule="evenodd" clip-rule="evenodd" d="M447.364 548.005C445.881 548.179 447.465 553.175 444.254 553.555C441.049 553.934 439.491 549.201 435.854 550.701C432.217 552.202 418.954 559.96 418.431 563.132C417.903 566.303 422.844 567.236 429.622 566.52C436.399 565.804 437.648 563.391 442.736 564.363C447.817 565.334 451.623 563.786 451.456 560.071C451.288 556.357 448.847 547.832 447.364 548.005Z" fill="#222D4E"/>
<path id="Path 14" fill-rule="evenodd" clip-rule="evenodd" d="M434.195 551.471L434.855 552.461C435.179 552.946 435.02 553.605 434.51 553.889L425.545 558.895C425.254 559.057 424.902 559.064 424.605 558.913L423.213 558.207C425.399 556.623 427.186 555.433 429.161 554.264C430.678 553.367 432.357 552.442 434.195 551.471Z" fill="white" fill-opacity="0.540975"/>
<path id="Path_42" fill-rule="evenodd" clip-rule="evenodd" d="M480.185 444.779C471.086 445.185 420.446 456.392 411.246 458.296C402.046 460.2 394.267 470.502 401.283 482.431C409.163 495.822 429.494 533.853 434.43 542.427C436.874 546.67 449.199 544.291 446.304 537.169C440.907 523.892 438.4 490.539 424.64 478.378C424.64 478.378 470.917 486.436 490.906 477.206C505.434 470.496 502.148 443.796 480.185 444.779Z" fill="url(#paint9_linear_765_14846)"/>
</g>
<g id="LArm_2">
<path id="Path_43" fill-rule="evenodd" clip-rule="evenodd" d="M415.718 390.947C415.718 390.947 415.821 383.54 413.231 379.669C410.642 375.798 410.539 371.686 408.579 371.821C406.619 371.955 408.56 381.513 408.56 381.513C408.56 381.513 406.073 380.562 404.287 379.36C402.5 378.157 397.083 372.23 395.817 373.281C393.671 375.07 397.128 385.165 399.011 387.184C400.9 389.203 411.22 395.841 411.22 395.841L415.718 390.947Z" fill="url(#paint10_linear_765_14846)"/>
<path id="Path_44" fill-rule="evenodd" clip-rule="evenodd" d="M471.632 386.508C467.399 396.33 459.65 414.374 456.455 419.757C452.451 426.498 446.137 429.468 438.745 424.467C430.978 419.211 409.591 398.711 408.964 394.068C408.342 389.424 413.577 383.853 418.314 386.737C423.05 389.622 442.732 406.01 442.732 406.01C442.732 406.01 450.675 385.637 457.064 373.836C462.598 363.626 478.074 371.577 471.632 386.508Z" fill="#2DC52A"/>
<path id="Path_45" fill-rule="evenodd" clip-rule="evenodd" d="M442.65 406.021C442.65 406.021 440.517 413.26 440.018 412.841C439.52 412.422 440.399 404.128 440.399 404.128L442.65 406.021Z" fill="black" fill-opacity="0.302803"/>
</g>
<g id="PhoneMini4">
<g id="Group 3_3">
<path id="Rectangle_28" d="M388.71 372.331C388.301 371.07 388.991 369.716 390.251 369.307L401.618 365.613C402.879 365.204 404.233 365.894 404.642 367.154L413.518 394.47C413.928 395.731 413.238 397.085 411.977 397.495L400.61 401.188C399.35 401.598 397.996 400.908 397.586 399.647L388.71 372.331Z" fill="#7596FF"/>
<rect id="Rectangle_29" x="389.031" y="369.239" width="16.7519" height="33.522" rx="2.4" transform="rotate(-18 389.031 369.239)" fill="#93C2F9"/>
<path id="Rectangle_30" d="M392.25 369.453L393.458 369.06C393.704 368.98 393.966 369.091 394.085 369.312L394.122 369.399C394.212 369.676 394.51 369.828 394.787 369.738L400.613 367.845C400.859 367.765 401.006 367.521 400.973 367.273L400.952 367.18C400.862 366.903 401.013 366.606 401.29 366.516L402.492 366.125C403.385 365.835 404.341 366.285 404.697 367.137L404.748 367.277L413.149 393.21C413.514 394.342 412.895 395.556 411.765 395.925L402.206 399.031C401.124 399.385 399.965 398.833 399.545 397.794L399.492 397.649C399.492 397.649 399.492 397.648 399.493 397.647L391.094 371.72C390.788 370.774 391.305 369.76 392.25 369.453Z" fill="#E6F3FF"/>
</g>
</g>
<g id="Body_2">
<path id="Path_46" fill-rule="evenodd" clip-rule="evenodd" d="M513.93 374.674C513.93 374.674 503.73 408.845 503.428 415.313C503.126 421.782 511.77 440.794 510.299 445.599C506.905 456.704 463.582 461.485 461.927 446.547C461.155 439.58 462.761 433.328 460.91 425.119C459.066 416.91 451.651 404.711 455.857 393.242C460.062 381.773 458.935 371.163 461.943 369.157C464.951 367.152 471.982 365.022 471.982 365.022C475.401 370.056 486.943 369.983 492.451 364.667C492.451 364.667 506.134 367.323 513.93 374.674Z" fill="#2DC52A"/>
<path id="Path_47" fill-rule="evenodd" clip-rule="evenodd" d="M504.789 380.208C497.991 391.004 498.011 409.799 494.36 412.261C490.708 414.722 476.497 412.307 476.497 414.256C476.497 416.205 496.136 434.071 492.912 442.611C491.224 447.083 491.682 451.084 494.286 454.613L495.136 454.428C502.874 452.678 509.095 449.536 510.298 445.599C511.77 440.794 502.129 421.782 502.431 415.313C502.687 409.822 510.794 384.37 513.238 376.802C511.248 373.289 508.432 374.424 504.789 380.208Z" fill="black" fill-opacity="0.199355"/>
</g>
<g id="RArm">
<path id="Path_48" fill-rule="evenodd" clip-rule="evenodd" d="M493.197 408.849C493.197 408.849 484.606 401.241 481.977 400.358C479.347 399.475 463.944 398.415 464.041 400.41C464.152 402.547 472.425 402.424 473.282 403.475C474.139 404.526 474.334 411.713 477.574 412.52C480.808 413.327 490.502 414.717 490.502 414.717L493.197 408.849Z" fill="url(#paint11_linear_765_14846)"/>
<path id="Path_49" fill-rule="evenodd" clip-rule="evenodd" d="M516.052 376.638C525.103 389.419 532.83 408.887 535.796 416.477C538.763 424.068 535.77 435.516 522.727 433.268C509.708 431.027 488.992 418.846 486.7 415.293C484.408 411.74 487.89 405.275 492.275 406.121C496.337 406.904 516.488 415.477 516.488 415.477C516.488 415.477 503.524 392.486 500.359 386.323C495.071 376.03 508.079 365.376 516.052 376.638Z" fill="#2DC52A"/>
<path id="Path_50" fill-rule="evenodd" clip-rule="evenodd" d="M516.282 415.319C516.282 415.319 523.072 418.695 522.244 417.279C521.416 415.864 513.691 410.891 513.691 410.891L516.282 415.319Z" fill="black" fill-opacity="0.302803"/>
</g>
<g id="RLeg_2">
<path id="Path_51" fill-rule="evenodd" clip-rule="evenodd" d="M403.309 538.37C403.309 538.37 403.467 550.811 393.22 555.463C382.98 560.114 375.685 559.834 376.613 563.43C377.542 567.026 404.195 566.881 406.684 564.068C408.806 561.676 413.419 539.399 414.689 541.102L403.309 538.37Z" fill="url(#paint12_linear_765_14846)"/>
<path id="Path_52" fill-rule="evenodd" clip-rule="evenodd" d="M411.416 552.296C410.271 550.085 410.199 556.307 405.686 554.936C402.024 553.823 400.772 547.454 398.457 548.849C396.143 550.243 375.77 561.06 375.654 561.125C373.146 562.477 373.847 566.572 378.083 567.287C382.791 568.081 407.182 567.547 408.491 566.291C409.8 565.036 412.333 554.07 411.416 552.296Z" fill="#222D4E"/>
<path id="Path 14_2" fill-rule="evenodd" clip-rule="evenodd" d="M395.444 552.569C395.842 552.569 396.222 553.069 396.496 553.55C396.764 554.019 396.515 554.589 396.015 554.795L385.503 559.125C385.163 559.265 384.766 559.213 384.523 558.937C384.299 558.685 384.092 558.371 384.195 558.156C384.393 557.741 394.676 552.569 395.444 552.569Z" fill="white" fill-opacity="0.540975"/>
<path id="Path_53" fill-rule="evenodd" clip-rule="evenodd" d="M509.69 440.933C509.69 440.933 522.918 468.883 504.329 478.481C486.352 487.762 432.534 476.785 432.534 476.785C432.534 476.785 433.496 484.531 432.534 491.44C430.022 509.486 418.077 539.55 415.55 543.327C412.055 548.551 401.409 544.611 401.208 540.262C401.008 535.912 409.234 480.358 410.485 469.764C411.729 459.169 415.658 457.63 427.134 454.734C429.771 454.069 460.948 446.317 463.804 446.543C488.345 448.484 509.69 440.933 509.69 440.933Z" fill="#2C3757"/>
<path id="Path_54" opacity="0.461565" fill-rule="evenodd" clip-rule="evenodd" d="M495.19 475.596C477.392 477.591 430.272 473.478 428.38 475.347C426.573 477.132 426.875 508.175 422.822 526.143L423.438 524.446C427.25 513.854 431.208 500.971 432.534 491.44C433.496 484.531 432.534 476.784 432.534 476.784L434.704 477.205C444.934 479.127 488.509 486.648 504.329 478.481C512.9 474.055 516.398 466.703 514.822 456.423C512.108 468.042 505.564 474.433 495.19 475.596Z" fill="white" fill-opacity="0.192499"/>
</g>
</g>
<path id="Rectangle_31" fill-rule="evenodd" clip-rule="evenodd" d="M476.709 492.784C476.709 479.467 487.504 468.672 500.82 468.672L581.951 468.672V553.385C581.951 554.35 581.169 555.132 580.204 555.132H476.709L476.709 492.784Z" fill="#86E5F0"/>
</g>
<g id="Group 80">
<path id="Rectangle_32" d="M595 508H603C610.732 508 617 514.268 617 522H609C601.268 522 595 515.732 595 508Z" fill="#2CE780"/>
<path id="Rectangle_33" d="M605 500H611C614.866 500 618 503.134 618 507H612C608.134 507 605 503.866 605 500Z" fill="#28C76F"/>
<path id="Rectangle_34" d="M636 507H629C622.373 507 617 512.373 617 519H624C630.627 519 636 513.627 636 507Z" fill="#28C76F"/>
<path id="Rectangle_35" fill-rule="evenodd" clip-rule="evenodd" d="M627.408 494.212L621.714 496.524C617.268 498.329 615.12 503.389 616.91 507.841L622.605 505.529C627.05 503.724 629.198 498.663 627.408 494.212V494.212Z" fill="#2CE780"/>
<path id="Path_55" fill-rule="evenodd" clip-rule="evenodd" d="M612.765 493C615.893 494.983 617.877 498.756 617.994 502.897L618 503.286V533H616.395V503.286C616.395 499.802 614.819 496.589 612.267 494.828L612 494.651L612.765 493Z" fill="#28C76F"/>
<g id="Group 84">
<path id="Rectangle_36" fill-rule="evenodd" clip-rule="evenodd" d="M605.059 523H630.005C631.17 523 632.115 523.925 632.115 525.067V525.126C632.115 526.388 632.728 527.574 633.767 528.322L634.413 528.788C635.451 529.535 636.065 530.722 636.065 531.984V562.872C636.065 565.063 634.251 566.839 632.014 566.839H603.051C600.814 566.839 599 565.063 599 562.872V531.984C599 530.722 599.613 529.535 600.651 528.788L601.298 528.322C602.267 527.624 602.866 526.544 602.941 525.377L602.95 525.067C602.95 523.925 603.894 523 605.059 523Z" fill="#DA4E4F"/>
<mask id="mask2_765_14846" style="mask-type:alpha" maskUnits="userSpaceOnUse" x="599" y="523" width="38" height="44">
<path id="Rectangle_37" fill-rule="evenodd" clip-rule="evenodd" d="M605.059 523H630.005C631.17 523 632.115 523.925 632.115 525.067V525.126C632.115 526.388 632.728 527.574 633.767 528.322L634.413 528.788C635.451 529.535 636.065 530.722 636.065 531.984V562.872C636.065 565.063 634.251 566.839 632.014 566.839H603.051C600.814 566.839 599 565.063 599 562.872V531.984C599 530.722 599.613 529.535 600.651 528.788L601.298 528.322C602.267 527.624 602.866 526.544 602.941 525.377L602.95 525.067C602.95 523.925 603.894 523 605.059 523Z" fill="white"/>
</mask>
<g mask="url(#mask2_765_14846)">
<path id="Rectangle_38" fill-rule="evenodd" clip-rule="evenodd" d="M597.988 521.016H608.115C603.646 538.063 614.531 552.2 608.115 569.616H597.988V521.016Z" fill="#E95B5C"/>
<rect id="Rectangle_39" x="599" y="549.779" width="37.0645" height="3.96734" fill="#FFDFE2" fill-opacity="0.257949"/>
<rect id="Rectangle_40" x="599" y="538.869" width="37.0645" height="3.96734" fill="#FFDFE2" fill-opacity="0.257949"/>
</g>
</g>
<path id="Rectangle_41" fill-rule="evenodd" clip-rule="evenodd" d="M607.371 488.916L612.088 490.275C616.04 491.414 618.325 495.536 617.196 499.491L612.479 498.131C608.528 496.993 606.243 492.87 607.371 488.916V488.916Z" fill="#2CE780"/>
</g>
</g>
</g>
<defs>
<filter id="filter0_f_765_14846" x="0.563437" y="153.777" width="241.934" height="243.659" filterUnits="userSpaceOnUse" color-interpolation-filters="sRGB">
<feFlood flood-opacity="0" result="BackgroundImageFix"/>
<feBlend mode="normal" in="SourceGraphic" in2="BackgroundImageFix" result="shape"/>
<feGaussianBlur stdDeviation="2.71828" result="effect1_foregroundBlur_765_14846"/>
</filter>
<filter id="filter1_dd_765_14846" x="173.229" y="335.514" width="248.701" height="176.768" filterUnits="userSpaceOnUse" color-interpolation-filters="sRGB">
<feFlood flood-opacity="0" result="BackgroundImageFix"/>
<feColorMatrix in="SourceAlpha" type="matrix" values="0 0 0 0 0 0 0 0 0 0 0 0 0 0 0 0 0 0 127 0" result="hardAlpha"/>
<feOffset dx="5" dy="5"/>
<feGaussianBlur stdDeviation="10"/>
<feColorMatrix type="matrix" values="0 0 0 0 0.0755213 0 0 0 0 0.582569 0 0 0 0 0.878793 0 0 0 0.229458 0"/>
<feBlend mode="normal" in2="BackgroundImageFix" result="effect1_dropShadow_765_14846"/>
<feColorMatrix in="SourceAlpha" type="matrix" values="0 0 0 0 0 0 0 0 0 0 0 0 0 0 0 0 0 0 127 0" result="hardAlpha"/>
<feOffset dy="1"/>
<feGaussianBlur stdDeviation="5.5"/>
<feColorMatrix type="matrix" values="0 0 0 0 0.503982 0 0 0 0 0.700178 0 0 0 0 1 0 0 0 0.233829 0"/>
<feBlend mode="normal" in2="effect1_dropShadow_765_14846" result="effect2_dropShadow_765_14846"/>
<feBlend mode="normal" in="SourceGraphic" in2="effect2_dropShadow_765_14846" result="shape"/>
</filter>
<filter id="filter2_d_765_14846" x="177.965" y="196.352" width="244.004" height="154.821" filterUnits="userSpaceOnUse" color-interpolation-filters="sRGB">
<feFlood flood-opacity="0" result="BackgroundImageFix"/>
<feColorMatrix in="SourceAlpha" type="matrix" values="0 0 0 0 0 0 0 0 0 0 0 0 0 0 0 0 0 0 127 0" result="hardAlpha"/>
<feOffset dx="6" dy="4"/>
<feGaussianBlur stdDeviation="7"/>
<feColorMatrix type="matrix" values="0 0 0 0 0.0189934 0 0 0 0 0.0189934 0 0 0 0 0.0189934 0 0 0 0.11 0"/>
<feBlend mode="normal" in2="BackgroundImageFix" result="effect1_dropShadow_765_14846"/>
<feBlend mode="normal" in="SourceGraphic" in2="effect1_dropShadow_765_14846" result="shape"/>
</filter>
<linearGradient id="paint0_linear_765_14846" x1="121.964" y1="535.907" x2="123.277" y2="565.377" gradientUnits="userSpaceOnUse">
<stop stop-color="#FDC6C6"/>
<stop offset="1" stop-color="#FAB2B2"/>
</linearGradient>
<linearGradient id="paint1_linear_765_14846" x1="53.7243" y1="538.515" x2="56.1153" y2="564.585" gradientUnits="userSpaceOnUse">
<stop stop-color="#FDC6C6"/>
<stop offset="1" stop-color="#FAB2B2"/>
</linearGradient>
<linearGradient id="paint2_linear_765_14846" x1="72.0354" y1="210.657" x2="82.8045" y2="260.315" gradientUnits="userSpaceOnUse">
<stop stop-color="#FFAFAF"/>
<stop offset="1" stop-color="#F07777"/>
</linearGradient>
<linearGradient id="paint3_linear_765_14846" x1="74.7429" y1="201.186" x2="81.6577" y2="234.797" gradientUnits="userSpaceOnUse">
<stop stop-color="#FDC6C6"/>
<stop offset="1" stop-color="#FAB2B2"/>
</linearGradient>
<linearGradient id="paint4_linear_765_14846" x1="180.591" y1="240.178" x2="180.946" y2="275.551" gradientUnits="userSpaceOnUse">
<stop stop-color="#FDC6C6"/>
<stop offset="1" stop-color="#FAB2B2"/>
</linearGradient>
<linearGradient id="paint5_linear_765_14846" x1="53.8733" y1="323.088" x2="54.9342" y2="350.187" gradientUnits="userSpaceOnUse">
<stop stop-color="#FDC6C6"/>
<stop offset="1" stop-color="#FAB2B2"/>
</linearGradient>
<linearGradient id="paint6_linear_765_14846" x1="503.341" y1="336.993" x2="492.261" y2="386.47" gradientUnits="userSpaceOnUse">
<stop stop-color="#FFAFAF"/>
<stop offset="1" stop-color="#F07777"/>
</linearGradient>
<linearGradient id="paint7_linear_765_14846" x1="502.481" y1="327.599" x2="495.833" y2="360.118" gradientUnits="userSpaceOnUse">
<stop stop-color="#FDC6C6"/>
<stop offset="1" stop-color="#FAB2B2"/>
</linearGradient>
<linearGradient id="paint8_linear_765_14846" x1="455.47" y1="530.406" x2="453.877" y2="560.186" gradientUnits="userSpaceOnUse">
<stop stop-color="#FDC6C6"/>
<stop offset="1" stop-color="#FAB2B2"/>
</linearGradient>
<linearGradient id="paint9_linear_765_14846" x1="424.399" y1="568.758" x2="376.325" y2="476.481" gradientUnits="userSpaceOnUse">
<stop stop-color="#28324F"/>
<stop offset="1" stop-color="#222735"/>
</linearGradient>
<linearGradient id="paint10_linear_765_14846" x1="419.28" y1="365.969" x2="417.128" y2="394.572" gradientUnits="userSpaceOnUse">
<stop stop-color="#FDC6C6"/>
<stop offset="1" stop-color="#FAB2B2"/>
</linearGradient>
<linearGradient id="paint11_linear_765_14846" x1="498.242" y1="395.514" x2="497.612" y2="413.984" gradientUnits="userSpaceOnUse">
<stop stop-color="#FDC6C6"/>
<stop offset="1" stop-color="#FAB2B2"/>
</linearGradient>
<linearGradient id="paint12_linear_765_14846" x1="421.292" y1="531.606" x2="419.734" y2="564.801" gradientUnits="userSpaceOnUse">
<stop stop-color="#FDC6C6"/>
<stop offset="1" stop-color="#FAB2B2"/>
</linearGradient>
</defs>
</svg>
