<svg width="250" height="178" viewBox="0 0 250 178" fill="none" xmlns="http://www.w3.org/2000/svg">
<path fill-rule="evenodd" clip-rule="evenodd" d="M169.616 135.319L159.753 212.87L164.924 212.802L174.788 136.045L169.616 135.319Z" fill="#D2D2D2"/>
<path fill-rule="evenodd" clip-rule="evenodd" d="M173.808 135.319L183.671 212.87L178.5 212.802L168.636 136.045L173.808 135.319Z" fill="#D2D2D2"/>
<path fill-rule="evenodd" clip-rule="evenodd" d="M203.877 135.319L213.74 212.87L208.569 212.802L198.706 136.045L203.877 135.319Z" fill="#D2D2D2"/>
<path fill-rule="evenodd" clip-rule="evenodd" d="M137.102 147.509C132.627 147.509 129 143.882 129 139.407C129 134.933 132.627 131.305 137.102 131.305H168.302C174.022 131.305 178.803 126.955 179.341 121.261L184.276 69.0447C184.814 63.3505 189.595 59 195.315 59H212.697C219.158 59 224.25 64.5006 223.753 70.9416L218.631 137.275C218.185 143.051 213.368 147.509 207.576 147.509H137.102Z" fill="#D2D2D2"/>
<path fill-rule="evenodd" clip-rule="evenodd" d="M129.002 139.339C129.033 139.339 129.065 139.339 129.097 139.339H199.377C205.169 139.339 209.985 134.882 210.432 129.107L215.549 63.0214C215.648 61.746 215.527 60.5073 215.221 59.3409C214.345 59.1184 213.426 59 212.478 59H195.192C189.473 59 184.693 63.3488 184.153 69.0417L179.223 121.058C178.683 126.751 173.903 131.1 168.184 131.1H137.081C132.618 131.1 129 134.718 129 139.181C129 139.234 129.001 139.286 129.002 139.339Z" fill="#B2B0B0"/>
<path fill-rule="evenodd" clip-rule="evenodd" d="M173.228 111.918C165.804 112.248 124.486 121.356 116.979 122.903C109.472 124.45 103.126 132.823 108.85 142.518C115.279 153.401 131.868 184.309 135.896 191.276C137.889 194.725 147.946 192.791 145.584 187.003C141.18 176.213 139.135 149.107 127.907 139.224C127.907 139.224 165.666 145.773 181.976 138.271C193.829 132.818 191.148 111.119 173.228 111.918Z" fill="#42474F"/>
<path fill-rule="evenodd" clip-rule="evenodd" d="M121.441 64.1144C121.441 64.1144 121.525 58.0946 119.412 54.9486C117.299 51.8026 117.215 48.4609 115.616 48.5702C114.017 48.6796 115.6 56.447 115.6 56.447C115.6 56.447 113.571 55.6745 112.114 54.6974C110.656 53.7202 106.236 48.9031 105.204 49.7567C103.452 51.2112 106.273 59.4155 107.809 61.0558C109.351 62.6966 117.771 68.092 117.771 68.092L138.395 89.1092L142.268 78.4323L121.441 64.1144Z" fill="#FFE0D1"/>
<path fill-rule="evenodd" clip-rule="evenodd" d="M167.062 62.1289C163.609 70.1112 157.286 84.775 154.679 89.1498C151.412 94.6287 146.261 97.0425 140.229 92.9775C138.628 91.8983 133.75 87.7751 133.75 87.7751L139.653 74.8284L143.482 77.9776C143.482 77.9776 149.963 61.421 155.176 51.8299C159.691 43.5321 172.319 49.9938 167.062 62.1289Z" fill="#FFB66F"/>
<path fill-rule="evenodd" clip-rule="evenodd" d="M143.415 77.9862C143.415 77.9862 141.674 83.8701 141.267 83.5294C140.861 83.1887 141.578 76.4485 141.578 76.4485L143.415 77.9862Z" fill="black" fill-opacity="0.159856"/>
<path fill-rule="evenodd" clip-rule="evenodd" d="M141.12 75.545L136.184 92.0208L130.941 87.9197L138.238 73.3137L141.12 75.545Z" fill="#FFEDC2"/>
<path fill-rule="evenodd" clip-rule="evenodd" d="M173.332 6.43312C173.332 6.43312 175.927 2.16383 180.039 2.48261C184.151 2.80138 189.138 9.05325 188.874 15.9825C188.618 22.9108 190.148 24.0001 193.097 28.0059C201.02 38.7834 188.763 51.4094 188.763 51.4094L172.482 51.4207L171.875 21.1981L173.332 6.43312Z" fill="#42474F"/>
<path fill-rule="evenodd" clip-rule="evenodd" d="M179.789 8.92792C190.879 16.4815 184.518 25.2555 183.406 27.3154C181.265 42.3018 185.665 43.0694 192.304 46.4152L189.993 50.5361L180.477 48.7523L172.467 9.68767L179.789 8.92792Z" fill="black" fill-opacity="0.199355"/>
<path fill-rule="evenodd" clip-rule="evenodd" d="M185.015 45.4035C185.015 45.4035 179.36 44.2707 179.192 36.3647C179.024 28.4586 179.955 25.7599 179.955 25.7599L169.291 25.5681C169.291 25.5681 169.175 34.3793 169.173 37.5663C169.168 45.3154 163.183 46.2143 163.183 46.2143C163.183 46.2143 164.428 52.3442 174.091 52.8857C181.636 53.3092 185.015 45.4035 185.015 45.4035Z" fill="#F9C7B0"/>
<path fill-rule="evenodd" clip-rule="evenodd" d="M179.566 8.66612C179.956 4.10542 172.415 2.99966 171.017 6.52273C171.017 6.52273 170.632 9.66205 173.086 10.886C176.405 12.5348 179.566 8.66612 179.566 8.66612Z" fill="#FB9934"/>
<path fill-rule="evenodd" clip-rule="evenodd" d="M180.567 20.4127C185.183 19.2441 185.867 26.1945 181.031 27.2128C181.031 27.2128 180.273 37.4539 170.525 39.5259C162.608 41.2086 159.704 30.0775 159.156 27.8504C158.57 25.4759 156.891 17.6233 156.891 17.6233L179.156 12.88L180.567 20.4127Z" fill="#FFE0D1"/>
<path fill-rule="evenodd" clip-rule="evenodd" d="M179.015 25.1181C178.177 25.0707 177.031 20.7323 177.031 20.7323C174.56 20.7671 174.029 20.3224 171.615 17.7738C164.018 21.1555 158.725 22.82 159.261 28.7752C159.261 28.7752 150.435 16.6376 159.892 9.64659C168.212 3.5034 178.764 5.37074 182.013 12.3204C184.311 17.2251 183.74 21.3073 183.74 21.3073C183.74 21.3073 182.127 19.6491 180.248 20.5482C178.37 21.4473 179.853 25.1656 179.015 25.1181Z" fill="#42474F"/>
<path d="M171.027 32.6475C171.027 32.6475 169.122 35.1003 166.043 33.8372" stroke="#F77B7B" stroke-width="1.5" stroke-linecap="round"/>
<path d="M169.977 35.242C169.325 35.7278 168.635 35.8998 167.943 35.7005" stroke="#F49494" stroke-linecap="round"/>
<path d="M180.869 24.1645C180.589 23.0857 180.739 22.1499 181.816 21.7393" stroke="#F77B7B" stroke-linecap="round"/>
<path fill-rule="evenodd" clip-rule="evenodd" d="M165.414 45.158C165.284 45.1518 160.724 47.1459 160.199 47.9147C156.778 52.9232 150.496 70.5514 150.173 74.3755C149.808 78.7866 156.181 85.8135 156.259 92.1993C156.328 98.586 153.533 117.815 154.617 119.612C155.693 121.408 162.763 129.941 164.238 129.976C165.721 130.01 166.828 125.53 169.075 125.628C171.313 125.725 175.98 131.665 177.993 131.622C179.997 131.579 200.764 118.451 199.177 114.71C197.581 110.97 190.172 101.674 190.927 96.5774C191.673 91.4817 197.633 72.6705 199.784 66.2682C201.927 59.8659 203.653 54.7658 199.654 52.0109C195.655 49.256 182.643 44.2168 182.643 44.2168L170.992 50.72C170.992 50.72 166.091 45.1905 165.414 45.158Z" fill="#FF9F43"/>
<path fill-rule="evenodd" clip-rule="evenodd" d="M169.557 50.5393C166.063 62.1345 161.267 73.5598 159.346 84.4325L164.933 81.429L170.086 85.3251C169.722 74.0212 171.624 62.1521 172.498 50.5393H169.557Z" fill="#FFF6E1"/>
<path fill-rule="evenodd" clip-rule="evenodd" d="M189.966 59.4425L190.099 60.3802C191.664 72.0243 189.812 86.154 186.601 88.3096C183.324 90.5102 170.569 88.3507 170.569 90.0934C170.569 91.8361 188.196 107.807 185.302 115.442C183.711 119.64 184.244 123.373 186.9 126.642L187.672 126.124C193.692 122.05 200.084 116.847 199.177 114.71C197.581 110.97 190.172 101.674 190.927 96.5774C191.643 91.6855 197.164 74.1535 199.508 67.0944L200.255 64.8563C201.123 62.2321 201.845 59.8549 202.02 57.8039L201.481 57.4554C192.872 51.9483 189.033 52.6108 189.966 59.4425Z" fill="black" fill-opacity="0.159856"/>
<path fill-rule="evenodd" clip-rule="evenodd" d="M184.793 45.0379L182.643 44.2168L170.737 50.3835C170.737 50.3835 172.975 56.0682 176.94 53.2374C180.338 50.8167 178.904 48.6865 181.568 47.5877C184.223 46.4888 184.793 45.0379 184.793 45.0379Z" fill="#FFF6E1"/>
<path fill-rule="evenodd" clip-rule="evenodd" d="M170.736 50.3834C169.873 52.2962 168.119 53.414 167.212 53.0665C165.714 52.4926 166.357 50.2059 165.767 49.0507C165.344 48.2312 165.071 48.1075 164.702 47.338C164.358 46.6322 164.344 45.785 164.432 45.5512L165.603 45.02C165.603 45.02 167.213 46.5347 167.962 47.338C168.895 48.339 170.736 50.3834 170.736 50.3834Z" fill="#FFF6E1"/>
<path fill-rule="evenodd" clip-rule="evenodd" d="M183.844 81.0954C183.844 81.0954 176.835 74.9127 174.689 74.1952C172.543 73.4777 159.976 72.6158 160.055 74.2371C160.145 75.9741 166.895 75.8741 167.595 76.7287C168.294 77.5828 168.453 83.4232 171.097 84.079C173.735 84.7347 181.645 85.8651 181.645 85.8651L200.567 97.2377L201.375 86.8466L183.844 81.0954Z" fill="#FFE0D1"/>
<path fill-rule="evenodd" clip-rule="evenodd" d="M202.492 54.9177C209.877 65.3048 216.182 81.1269 218.602 87.2954C221.022 93.464 218.581 102.768 207.939 100.942C206.142 100.633 202.111 99.3963 202.111 99.3963L199.568 85.1096L202.848 86.4823C202.848 86.4823 192.271 67.7977 189.688 62.7889C185.374 54.4238 195.987 45.7656 202.492 54.9177Z" fill="#FFB66F"/>
<path fill-rule="evenodd" clip-rule="evenodd" d="M202.848 86.4822C202.848 86.4822 208.22 89.0975 207.545 87.9471C206.869 86.7967 200.821 82.8486 200.821 82.8486L202.848 86.4822Z" fill="black" fill-opacity="0.159856"/>
<path fill-rule="evenodd" clip-rule="evenodd" d="M202.336 85.8221L204.093 101.271L197.145 99.0698L198.194 83.9302L202.336 85.8221Z" fill="#FFEDC2"/>
<path fill-rule="evenodd" clip-rule="evenodd" d="M195.675 108.792C195.675 108.792 209.722 129.886 192.928 139.307C178.585 147.353 134.349 137.929 134.349 137.929C134.349 137.929 135.134 144.225 134.349 149.84C132.3 164.505 122.554 188.938 120.492 192.008C117.64 196.254 108.953 193.052 108.79 189.517C108.626 185.982 115.338 140.833 116.359 132.223C117.374 123.613 120.58 122.362 129.943 120.009C132.095 119.468 157.533 113.168 159.863 113.351C179.886 114.929 195.675 108.792 195.675 108.792Z" fill="#42474F"/>
<path opacity="0.439941" fill-rule="evenodd" clip-rule="evenodd" d="M185.471 136.963C170.95 138.585 132.504 135.242 130.96 136.761C129.486 138.211 129.732 163.441 126.425 178.043C129.682 169.195 133.208 158.004 134.349 149.84C135.134 144.225 134.349 137.929 134.349 137.929L135.851 138.228C143.689 139.745 180.026 146.259 192.928 139.307C200.496 135.23 203.424 128.916 201.712 120.367C199.648 130.452 194.234 135.984 185.471 136.963Z" fill="white" fill-opacity="0.192499"/>
<ellipse rx="2.44034" ry="4.46024" transform="matrix(-0.97437 0.224951 0.224951 0.97437 110.166 133.379)" fill="white" fill-opacity="0.192499"/>
<ellipse rx="3.2535" ry="4.86614" transform="matrix(-0.961262 -0.275637 -0.275637 0.961262 121.557 130.541)" fill="white" fill-opacity="0.192499"/>
<path d="M84.4244 52.2482C83.5935 50.707 84.5901 48.8152 86.331 48.6288L108.267 46.2805C109.243 46.1759 110.189 46.6616 110.673 47.5164L124.957 72.7438C125.798 74.2283 124.912 76.0972 123.231 76.3863L101.372 80.1444C100.329 80.3237 99.2882 79.817 98.786 78.8854L84.4244 52.2482Z" fill="#7596FF"/>
<path fill-rule="evenodd" clip-rule="evenodd" d="M85.4186 52.1093C84.624 50.6147 85.5382 48.7824 87.2101 48.5186L108.598 45.1437C109.636 44.9798 110.664 45.4927 111.157 46.4208L124.882 72.2333C125.677 73.7278 124.763 75.5601 123.091 75.824L101.703 79.1989C100.665 79.3628 99.6369 78.8499 99.1434 77.9218L85.4186 52.1093Z" fill="url(#paint0_linear_674_14636)"/>
<path d="M85.957 50.4287L109.738 46.3819L124.351 73.8656L100.684 77.4631L85.957 50.4287Z" fill="white"/>
<path d="M92.0907 47.1442C91.8007 46.6516 92.1059 46.0226 92.6723 45.9456L101.51 44.744C102.149 44.6572 102.778 44.9622 103.105 45.5177L104.541 47.9576C104.831 48.4502 104.526 49.0791 103.959 49.1562L95.1214 50.3577C94.4826 50.4446 93.8541 50.1396 93.527 49.584L92.0907 47.1442Z" fill="#7367F0"/>
<path fill-rule="evenodd" clip-rule="evenodd" d="M104.513 54.4099C104.83 54.2415 105.223 54.3614 105.391 54.6776C105.547 54.9712 105.455 55.331 105.187 55.5157L105.122 55.5551L94.5388 57.3356C94.2221 57.504 93.829 57.3842 93.6609 57.0679C93.5048 56.7743 93.5974 56.4146 93.865 56.2299L93.9299 56.1905L104.513 54.4099Z" fill="#A7C3FF"/>
<path fill-rule="evenodd" clip-rule="evenodd" d="M107.557 60.1357C107.874 59.9674 108.267 60.0872 108.435 60.4034C108.591 60.6971 108.499 61.0568 108.231 61.2415L108.166 61.2809L97.5827 63.0615C97.266 63.2298 96.873 63.11 96.7048 62.7938C96.5487 62.5001 96.6414 62.1404 96.909 61.9557L96.9738 61.9163L107.557 60.1357Z" fill="#A7C3FF"/>
<path fill-rule="evenodd" clip-rule="evenodd" d="M110.602 65.8616C110.919 65.6932 111.312 65.813 111.48 66.1293C111.636 66.4229 111.544 66.7826 111.276 66.9673L111.211 67.0067L100.628 68.7873C100.311 68.9557 99.9179 68.8358 99.7498 68.5196C99.5936 68.226 99.6863 67.8662 99.9539 67.6815L100.019 67.6421L110.602 65.8616Z" fill="#A7C3FF"/>
<path fill-rule="evenodd" clip-rule="evenodd" d="M83.5869 110.062H99.9298V213.458H83.5869V110.062Z" fill="#D2D2D2"/>
<path fill-rule="evenodd" clip-rule="evenodd" d="M83.5869 106H93.3926V213.458H83.5869V106Z" fill="#EBEBEB"/>
<path fill-rule="evenodd" clip-rule="evenodd" d="M9.2334 110.062H90.1305V141.074H25.5762V213.458H9.2334V110.062Z" fill="#D2D2D2"/>
<path fill-rule="evenodd" clip-rule="evenodd" d="M9.2334 110.062H19.0391V213.458H9.2334V110.062Z" fill="#EBEBEB"/>
<path fill-rule="evenodd" clip-rule="evenodd" d="M211.539 110.062H227.882V213.458H211.539V110.062Z" fill="#C5C5C5"/>
<path fill-rule="evenodd" clip-rule="evenodd" d="M137.186 110.062H218.083V148.45H153.528V213.458H137.186V110.062Z" fill="#D2D2D2"/>
<path fill-rule="evenodd" clip-rule="evenodd" d="M22.3018 106L146.896 106V148.375H22.3018V106Z" fill="#EBEBEB"/>
<path fill-rule="evenodd" clip-rule="evenodd" d="M134.734 110.062H144.54V148.375H134.734V110.062Z" fill="#C3C3C3"/>
<path fill-rule="evenodd" clip-rule="evenodd" d="M137.186 110.062H146.991V213.458H137.186V110.062Z" fill="#EBEBEB"/>
<path fill-rule="evenodd" clip-rule="evenodd" d="M140.493 112.093C140.493 108.728 143.221 106 146.586 106L230.784 106C234.149 106 236.877 108.728 236.877 112.093C236.877 115.458 234.149 118.186 230.784 118.186H146.586C143.221 118.186 140.493 115.458 140.493 112.093Z" fill="#C5C5C5"/>
<path fill-rule="evenodd" clip-rule="evenodd" d="M12.5908 108.437H137.186V120.624H12.5908V108.437Z" fill="#D2D2D2"/>
<path fill-rule="evenodd" clip-rule="evenodd" d="M0.49707 112.093C0.49707 108.728 3.22506 106 6.59021 106H149.07C152.435 106 155.163 108.728 155.163 112.093C155.163 115.458 152.435 118.186 149.07 118.186H6.59021C3.22506 118.186 0.49707 115.458 0.49707 112.093Z" fill="#EBEBEB"/>
<path fill-rule="evenodd" clip-rule="evenodd" d="M167.545 94.55H171.587C172.367 94.55 173 95.1866 173 95.9719V97.9195C173 99.7804 171.5 101.289 169.65 101.289H167.545C167.21 101.289 166.939 101.016 166.939 100.68C166.939 100.343 167.21 100.07 167.545 100.07H169.65C170.831 100.07 171.788 99.1073 171.788 97.9195V95.9719C171.788 95.8597 171.698 95.7688 171.587 95.7688H167.545C167.21 95.7688 166.939 95.496 166.939 95.1594C166.939 94.8229 167.21 94.55 167.545 94.55Z" fill="#8C81FF"/>
<path fill-rule="evenodd" clip-rule="evenodd" d="M154.123 93C153.23 93 152.507 93.7275 152.507 94.625V98.6875C152.507 101.612 154.702 104.022 157.525 104.339L157.526 105.188H164.597L164.598 104.321C167.35 103.938 169.469 101.562 169.469 98.6875V94.625C169.469 93.7275 168.746 93 167.853 93H154.123Z" fill="#7367F0"/>
<path fill-rule="evenodd" clip-rule="evenodd" d="M169.77 104.795C169.77 104.563 169.582 104.375 169.35 104.375H153.228C152.996 104.375 152.808 104.563 152.808 104.795C152.808 105.016 152.979 105.199 153.2 105.214L159.145 105.611H163.385L169.378 105.214C169.598 105.199 169.77 105.016 169.77 104.795Z" fill="#8C81FF"/>
<path fill-rule="evenodd" clip-rule="evenodd" d="M59.2305 104.551C59.2305 103.939 59.7263 103.443 60.338 103.443H138.851C139.463 103.443 139.959 103.939 139.959 104.551C139.959 105.162 139.463 105.658 138.851 105.658H60.338C59.7263 105.658 59.2305 105.162 59.2305 104.551Z" fill="#8C81FF"/>
<path fill-rule="evenodd" clip-rule="evenodd" d="M112.409 104.551C112.409 103.939 112.905 103.443 113.517 103.443H138.851C139.463 103.443 139.959 103.939 139.959 104.551C139.959 105.162 139.463 105.658 138.851 105.658H113.517C112.905 105.658 112.409 105.162 112.409 104.551Z" fill="#7367F0"/>
<path fill-rule="evenodd" clip-rule="evenodd" d="M55.5271 74.0632C55.2477 71.9091 56.9251 70 59.0972 70H106.66C108.469 70 109.997 71.3427 110.23 73.1368L113.647 99.4754C113.926 101.629 112.249 103.539 110.076 103.539H62.5141C60.705 103.539 59.1768 102.196 58.9441 100.402L55.5271 74.0632Z" fill="#7367F0"/>
<path fill-rule="evenodd" clip-rule="evenodd" d="M55.5271 74.0632C55.2477 71.9091 56.9251 70 59.0972 70H104.919C106.728 70 108.256 71.3427 108.489 73.1368L111.906 99.4754C112.186 101.629 110.508 103.539 108.336 103.539H62.5141C60.705 103.539 59.1768 102.196 58.9441 100.402L55.5271 74.0632Z" fill="url(#paint1_linear_674_14636)"/>
<ellipse cx="82.8227" cy="87.3031" rx="3.44749" ry="3.74863" transform="rotate(-37 82.8227 87.3031)" fill="white"/>
<path fill-rule="evenodd" clip-rule="evenodd" d="M224.478 174.571C231.242 159.267 237.387 143.549 243.013 127.485C230.055 139.7 219.978 154.581 221.413 174.571H224.478Z" fill="#57E295"/>
<path fill-rule="evenodd" clip-rule="evenodd" d="M220.872 176.169C219.272 150.074 219.95 125.839 233.368 112C231.518 140.651 228.055 160.834 223.67 176.169H220.872Z" fill="#28C76F"/>
<path fill-rule="evenodd" clip-rule="evenodd" d="M220.257 173.451C212.76 155.216 205.227 149.989 199 131.271C219.38 141.839 220.657 150.566 224.657 173.451H220.257Z" fill="#57E295"/>
<path fill-rule="evenodd" clip-rule="evenodd" d="M216.222 173.451L202.773 155.216C209.269 157.068 220.125 160.066 220.125 173.451H216.222Z" fill="#28C76F"/>
<path fill-rule="evenodd" clip-rule="evenodd" d="M228.801 173.451H233.287C236.138 167.498 240.156 163.399 249.876 168.367C243.505 158.661 230.432 155.724 228.801 173.451Z" fill="#57E295"/>
<path fill-rule="evenodd" clip-rule="evenodd" d="M224.674 173.451H228.405C235.252 163.658 238.196 159.391 245.282 151.028C235.947 154.57 226.366 159.391 224.674 173.451Z" fill="#28C76F"/>
<path fill-rule="evenodd" clip-rule="evenodd" d="M215.294 172.038H234.142C234.86 172.038 235.442 172.617 235.442 173.331V176.887C240.208 182.868 242.591 188.849 242.591 194.83C242.591 200.626 240.556 206.423 236.486 212.22C236.243 212.566 235.845 212.772 235.42 212.772H214.016C213.592 212.772 213.194 212.566 212.951 212.22C208.881 206.423 206.846 200.626 206.846 194.83C206.846 188.962 209.14 183.094 213.727 177.226L213.995 176.887V173.331C213.995 172.617 214.577 172.038 215.294 172.038Z" fill="#7367F0"/>
<mask id="mask0_674_14636" style="mask-type:alpha" maskUnits="userSpaceOnUse" x="206" y="172" width="37" height="41">
<path fill-rule="evenodd" clip-rule="evenodd" d="M215.294 172.038H234.142C234.86 172.038 235.442 172.617 235.442 173.331V176.887C240.208 182.868 242.591 188.849 242.591 194.83C242.591 200.626 240.556 206.423 236.486 212.22C236.243 212.566 235.845 212.772 235.42 212.772H214.016C213.592 212.772 213.194 212.566 212.951 212.22C208.881 206.423 206.846 200.626 206.846 194.83C206.846 188.962 209.14 183.094 213.727 177.226L213.995 176.887V173.331C213.995 172.617 214.577 172.038 215.294 172.038Z" fill="white"/>
</mask>
<g mask="url(#mask0_674_14636)">
<path fill-rule="evenodd" clip-rule="evenodd" d="M202.296 170.918H219.193C211.104 189.653 227.061 200.747 219.193 219.411H202.296V170.918Z" fill="#857AF9"/>
</g>
<defs>
<linearGradient id="paint0_linear_674_14636" x1="71.2552" y1="29.7367" x2="102.313" y2="88.1482" gradientUnits="userSpaceOnUse">
<stop stop-color="#7367F0"/>
<stop offset="1" stop-color="#8CA5FF"/>
</linearGradient>
<linearGradient id="paint1_linear_674_14636" x1="50.472" y1="52.1887" x2="50.472" y2="103.539" gradientUnits="userSpaceOnUse">
<stop stop-color="#7367F0"/>
<stop offset="1" stop-color="#8CA5FF"/>
</linearGradient>
</defs>
</svg>
